<svg xmlns="http://www.w3.org/2000/svg" viewBox="0 0 271.89 89.06"><defs><style>.cls-1{fill:#f0a;}.cls-2,.cls-3{fill:#1595ff;}.cls-3{fill-rule:evenodd;}</style></defs><title>Asset 1</title><g id="Layer_2" data-name="Layer 2"><g id="Layer_7" data-name="Layer 7"><path class="cls-1" d="M1.86,80.56l-.19-.32,0-.24,0-.25a28.77,28.77,0,0,1,.54-4.87l.05-.12,0-.2.12-.67,0-.13v-.08c0-.07,0-.08,0-.08s-.08.19-.3.37l-.13.24-.2.15a6.5,6.5,0,0,0-1,.59c-.13,0-.22-.12-.22-.29a2.38,2.38,0,0,1,.62-.76,1.39,1.39,0,0,1,.4-.42l.07-.15a2.92,2.92,0,0,1,.61-.79l.13-.1,0-.08.07-.2.24-.35.25-.34.39-.62.49-.93.07-.05.13-.34L4.16,69l.07-.12.07-.05,0-.1.07-.13.17-.15.12-.15c0-.07.07-.08.12-.08a.43.43,0,0,1,.37.47,2,2,0,0,1-.24,1l-.1.34-.24.72-.25.77-.15.46-.05.17L4,72.42l-.12.15v.15l-.05.22L3.74,73l0,.25-.25.91-.13.57-.1.52-.2.79-.1.49,0,.2-.05.05,0,.12,0,.08a11.27,11.27,0,0,0-.29,1.9V79l0,0,.07-.22v-.17l0-.05,0-.13,0-.2,0-.17.05-.12.07-.25.1-.13,0-.22.1-.22,0-.12.07-.19v-.19l.13-.4.07-.29.05-.1,0-.12L3.67,75l.05-.2.22-.69.3-.71a4.54,4.54,0,0,1,.29-.64l.05-.08.08-.29.12-.1v-.15a.92.92,0,0,1,.69-.39c.32,0,.52.22.66.66l.17.32.17.25.12.22.08.17.12.22a.55.55,0,0,0,.61.4c.08,0,.32-.27,1-.74l.25,0a.61.61,0,0,1,.05.19,3.9,3.9,0,0,1-1.63,1.68l-.34,0-.19,0L6.3,75l-.17-.17L6,74.61a5.06,5.06,0,0,1-.37-.42l-.19-.27-.19-.15-.15.07-.15,0-.1.19-.1.08-.07.19c-.19.56-.4,1-.51,1.36L4,75.76l0,.32-.17.47-.29,1-.08.13,0,.3-.17.62-.12.12v.13L3,79.28a.8.8,0,0,0-.07.3l-.32.71a1,1,0,0,0-.08.24.41.41,0,0,1-.32.19c-.07,0-.13-.05-.24-.13Z"/><path class="cls-1" d="M8.14,74.36c-.25,0-.32.25-.52.32l-.15.12a1.51,1.51,0,0,0-.45.3.18.18,0,0,1-.12,0l0-.05v0c0-.17.22-.4.45-.83L7.43,74c.29-.07.25-.32.47-.51a.38.38,0,0,1,.24-.27l.32-.35,0-.15L9,72.12l.1-.05,0-.07,0-.2.15-.22.05,0,0-.13-.07-.17s0,0,0-.05c0-.2.34-.61.83-.76l.19-.12.2,0h.4l0,0,.12,0,.2.08.07.1.15.1.17.05c.39.34.74.49.86.74l.22.24,0,.08,0,.13.08.1,0,.13a2.14,2.14,0,0,1,.07.44,11.76,11.76,0,0,1-.59,2.36h.12l.2-.15.12,0,.59-.44.12,0,.08-.19.25-.22.13-.07.08-.08.19-.2.1-.07a3,3,0,0,1,1-.46c.07,0,.13.05.13.1a1.25,1.25,0,0,1-.32.54l-.2.22a5.58,5.58,0,0,0-.42.47l-.08.12-.19.07,0,.05-.1.1-.17.08-.19.22-.08.15-.24.05-.05.1a2.22,2.22,0,0,1-.57.4l-.19.13a.27.27,0,0,0-.27.13l-.25.22-.13,0c-.07.05-.13.08-.17.15l-.59.07-.12-.05-.08,0a.26.26,0,0,1-.24-.3,1.78,1.78,0,0,1,.19-.67l0-.13.1-.17,0-.12.27-.89,0-.08v-.13a5.93,5.93,0,0,0,.05-.62.82.82,0,0,0-.34-.72l0-.13a1,1,0,0,1-.56-.3l-.17,0-.12.2-.39.22-.13.19-.1.1-.19.22-.13.24L9,73.55l-.08.12-.19.07-.05.08-.2.25a.29.29,0,0,1-.25.2Z"/><path class="cls-1" d="M14.66,74.21l-.22.15-.12.08-.17.13-.34.2-.1.08-.17.08c-.07.15-.17.19-.37.19s-.12,0-.13-.15a.31.31,0,0,1,.2-.27v-.17c.13-.13.25-.27.35-.39l.12-.17.12-.05a.56.56,0,0,1,.35-.32l.05-.12.22-.13.19-.15a.16.16,0,0,0,.07-.15V73l.08-.15,0-.1.05-.13a2.14,2.14,0,0,1,.3-.84l.12-.07,0-.1a5.08,5.08,0,0,1,1.21-1.4h.08l.07-.07.08,0L16.7,70a1.26,1.26,0,0,1,.86-.34,1.2,1.2,0,0,1,.24,0l.07,0,.34.1.12.15.05,0a1.53,1.53,0,0,1,.1.37.42.42,0,0,1,0,.13l.05.12,0,.19-.07.22-.12.17,0,.19a2.23,2.23,0,0,1-.4.51l-.05.1A7.31,7.31,0,0,1,16.65,73l-.15.05-.05.1-.29.19-.12.15a.12.12,0,0,0-.07.1,1,1,0,0,0,.12.4l.08.1.05.17a1.29,1.29,0,0,0,.77.3,1.3,1.3,0,0,0,.59-.2l.12,0,.29-.19.22,0,.05-.13.52-.45.13-.07.1-.15a1.72,1.72,0,0,1,.47-.22.56.56,0,0,1,.39-.27l.13-.13a.9.9,0,0,1,.22-.05c.12,0,.17,0,.17.13a.4.4,0,0,1-.08.22l0,.1a3.1,3.1,0,0,1-.47.51v.05c0,.13-.05.17-.24.19a2.22,2.22,0,0,1-.66.66l-.13.12-.08,0c-.12.1-.24.22-.32.3l-.1.12-.2.13a2.06,2.06,0,0,1-1.18.54h-.08l-.19,0-.08.05h-.24a1,1,0,0,1-.81-.25l-.12,0-.2-.19-.1-.19L15,75.15a1.3,1.3,0,0,1-.24-.45l-.08-.34ZM17,71.73c0-.15.13-.22.13-.47s0-.15-.07-.15h0l-.13.08-.32.29-.3.3-.27.39a.78.78,0,0,0-.12.35,0,0,0,0,0,0,0,.22.22,0,0,0,.12-.05l.15,0s.07,0,.12-.08l.08-.15.13-.13.34-.29Z"/><path class="cls-1" d="M19.11,74.41l-.07,0a.5.5,0,0,1-.37.25l-.17.13-.17.1a1.35,1.35,0,0,0-.24.2l-.2.07c-.12-.05-.17-.08-.17-.17a.63.63,0,0,1,0-.15l.19-.15v-.15a2.52,2.52,0,0,0,.34-.4L18.4,74l.15,0a1.19,1.19,0,0,1,.32-.39l.15-.17.62-.51.22-.13.08-.17.37-.4.12,0,.1-.19.77-.77.1,0,0-.08.67-.69c.25-.29.42-.46.72-.46a1.31,1.31,0,0,1,.51.15l.12.07.15.19a.5.5,0,0,1,.08.25.49.49,0,0,1,0,.15v.08a2.14,2.14,0,0,1-.12.64l0,.19-.07.35a8.59,8.59,0,0,1-.27,1.2l-.1.35L23,74l-.13.34a1.27,1.27,0,0,1-.13.34l0,.15.69-.49.17-.22a1.36,1.36,0,0,0,.54-.47l.15-.15c.08-.22.3-.17.51-.34L25,73a.58.58,0,0,0,.29-.15l.22-.12h0c.12,0,.17.07.17.13a.38.38,0,0,1-.05.15l0,.15c-.1.12-.25.32-.49.56,0,.13-.1.19-.25.2a1.75,1.75,0,0,1-.57.62l-.12.08-.19.24-.15.07-.12.17a2.67,2.67,0,0,1-.71.45l-.19.27-.1.15-.19.08c-.1.19-.2.27-.34.27h-.07l-.27.32-.37.15-.15.1-.13,0a.27.27,0,0,1-.25-.22l0-.08-.07-.1a3.08,3.08,0,0,1-.25-1.18l.05-.17-.13-.39c.22-.39.47-.59.67-.59s.17.13.27.34h.07a2.73,2.73,0,0,0,.17-.52v-.3a3.8,3.8,0,0,0,.1-.83v-.17l0-.35-.12-.15-.22,0-.15.17-.19.12c-.32.27-.64.66-1.11,1l-.24.19-.17.08,0,.08a2.35,2.35,0,0,1-.56.52Z"/><path class="cls-1" d="M24.68,74.21l-.22.15-.12.08-.17.13-.34.2-.1.08-.17.08c-.07.15-.17.19-.37.19s-.12,0-.13-.15a.31.31,0,0,1,.2-.27v-.17c.13-.13.25-.27.35-.39l.12-.17.12-.05a.56.56,0,0,1,.35-.32l.05-.12.22-.13.19-.15a.16.16,0,0,0,.07-.15V73l.08-.15,0-.1.05-.13a2.14,2.14,0,0,1,.3-.84l.12-.07,0-.1a5.08,5.08,0,0,1,1.21-1.4h.08l.07-.07.08,0,.05-.12a1.26,1.26,0,0,1,.86-.34,1.2,1.2,0,0,1,.24,0l.07,0,.34.1.12.15.05,0a1.53,1.53,0,0,1,.1.37.42.42,0,0,1,0,.13l.05.12,0,.19-.07.22-.12.17,0,.19a2.23,2.23,0,0,1-.4.51l-.05.1A7.31,7.31,0,0,1,26.67,73l-.15.05-.05.1-.29.19-.12.15a.12.12,0,0,0-.07.1,1,1,0,0,0,.12.4l.08.1.05.17a1.06,1.06,0,0,0,1.36.1l.12,0,.29-.19.22,0,.05-.13.52-.45.13-.07.1-.15a1.72,1.72,0,0,1,.47-.22.56.56,0,0,1,.39-.27l.13-.13a.9.9,0,0,1,.22-.05c.12,0,.17,0,.17.13a.4.4,0,0,1-.08.22l0,.1a3.1,3.1,0,0,1-.47.51v.05c0,.13-.05.17-.24.19a2.22,2.22,0,0,1-.66.66l-.13.12-.08,0c-.12.1-.24.22-.32.3l-.1.12-.2.13a2.06,2.06,0,0,1-1.18.54h-.08l-.19,0-.08.05h-.24a1,1,0,0,1-.81-.25l-.12,0-.2-.19-.1-.19L25,75.15a1.3,1.3,0,0,1-.24-.45l-.08-.34Zm2.38-2.48c0-.15.13-.22.13-.47s0-.15-.07-.15h0l-.13.08-.32.29-.3.3-.27.39a.78.78,0,0,0-.12.35,0,0,0,0,0,0,0,.22.22,0,0,0,.12-.05l.15,0s.07,0,.12-.08l.08-.15.13-.13.34-.29Z"/><path class="cls-1" d="M29.48,72.95a13.88,13.88,0,0,1,2.31-2.43l.17-.05.19-.12.19-.07.12,0,.12,0c.32.24.44.4.44.62a1.44,1.44,0,0,1-.07.42l0,.29q-.08.33-.15.56l-.12.17v.15a11.3,11.3,0,0,0-.44,1.16l-.08.07a.39.39,0,0,1,0,.13c0,.15-.15.19-.15.35v.07l.35-.32a3,3,0,0,1,.54-.62l.12-.05.05-.08,0-.1a.59.59,0,0,1,.2-.25l.25-.15.12-.19a2.27,2.27,0,0,1,1.48-.83c.3,0,.51.1.57.3l.15.17c.12.27.25.54.39.84l-.05.19c.24.15.22.59.52.59a.74.74,0,0,0,.24-.05l.07,0,.07-.12.2-.15.13-.13c.56-.13.84-.62,1.16-.62.12,0,.15.05.15.17a2.43,2.43,0,0,0-.08.29l-.12.13a12.65,12.65,0,0,1-1,1.11l-.08.08-.13.08c-.05.19-.15.22-.34.32l-.12.12-.34.13a.76.76,0,0,1-.32.1c-.35,0-.77-.35-1-1l0-.17a3.21,3.21,0,0,1-.56-.61.44.44,0,0,0-.19-.05c-.15,0-.35.17-.67.44l-.15.05-.13.19a.82.82,0,0,1-.42.3l-.24.35A15.74,15.74,0,0,1,31.57,76a1,1,0,0,1-.91.45c-.2,0-.27,0-.32-.25l0-.24-.05-.08,0-.15A16.36,16.36,0,0,0,30.8,74s.05-.08.1-.24l.08-.13a.24.24,0,0,1,0-.12c0-.17.19-.42.19-.71,0-.05-.07-.08-.15-.08-.44,0-.49.39-.69.51l-.2.27-.19.17-.12,0-.05.05-.05.08-.07.1c-.08,0-.13.07-.15.12l-.15.13a5.39,5.39,0,0,1-1.4.94.16.16,0,0,1-.17-.17c0-.12.07-.2.22-.29v-.15a4.29,4.29,0,0,1,1-1,.17.17,0,0,0,0-.05s0,0,.05,0h0c.05,0,.08-.05.1-.17l.12-.1.17-.15Z"/><path class="cls-1" d="M42,67.88a.62.62,0,0,1,.3.07c.07,0,.1,0,.1.08v.05c0,.44.07.69.07.76,0,.34-.12.4-.44.4l-.44,0a4.54,4.54,0,0,1-.25.62,1.56,1.56,0,0,1,.05.15c0,.07-.05.1-.12.19a34.44,34.44,0,0,0-.79,3.66v.05a.52.52,0,0,0,0,.13.13.13,0,0,0,0,.07,4.93,4.93,0,0,0-.12.88.2.2,0,0,0,.15.17c.08,0,.17-.08.34-.2l.17,0h.05a.52.52,0,0,1,0-.13s0,0,0-.08c.27-.24.51-.42.72-.59a.22.22,0,0,1,.13-.19,2,2,0,0,0,.44-.39l.07,0,.05-.1a1.68,1.68,0,0,1,.45-.24,2,2,0,0,1,.37-.29l.1-.05a.57.57,0,0,1,.32-.13c.08,0,.17,0,.17.1a.45.45,0,0,1-.08.22l0,.12a4.84,4.84,0,0,1-.51.54c0,.15-.05.2-.22.2l-.12.2-.27.27a1.8,1.8,0,0,1-.47.44c-.08,0-.1,0-.12.12a2.19,2.19,0,0,1-.67.69c-.12,0-.15.07-.17.19a3.33,3.33,0,0,1-1,.88h0a.41.41,0,0,1-.29.12l-.12,0s0,0-.05,0l-.1,0a.3.3,0,0,1-.15-.1c-.49-.1-.54-.34-.54-1a1.43,1.43,0,0,1,0-.22v-.07a.4.4,0,0,0,0-.15V75a1.71,1.71,0,0,1,.1-.57l.05-.1a.19.19,0,0,1-.05-.13v-.07a8.53,8.53,0,0,1,.35-1.36c.1-.1.17-.17.17-.22a.22.22,0,0,0-.05-.12l.05-.25-.1.17c-.15.08-.22.22-.34.45s-.29.13-.32.35l-.2.19c-.07.15-.12.22-.22.22s-.17,0-.19.17l-.05.13-.2.15a.37.37,0,0,0-.2.27l-.1.07a1.4,1.4,0,0,0-.39.25.86.86,0,0,0-.29.17,1,1,0,0,0-.34.24l-.15.12a.45.45,0,0,1-.17,0c-.15,0-.2,0-.2-.17v-.05a.3.3,0,0,1,.22-.2V74.5a2.58,2.58,0,0,0,.37-.35l0-.12.27-.13a.66.66,0,0,1,.32-.32l.1-.15c.08-.05.15-.08.19-.15a.71.71,0,0,1,.2-.05v-.13l.66-.79a2.76,2.76,0,0,1,.54-.81c.1,0,.15-.05.15-.12a.66.66,0,0,0,0-.1,3.2,3.2,0,0,0,.39-.66h0c.22,0,.24-.45.64-1.09a1.28,1.28,0,0,0,.24-.37l-.22,0a1.16,1.16,0,0,1-.4.1c-.12,0-.25,0-.39,0l-.1,0a.25.25,0,0,0-.1,0,.25.25,0,0,0-.13,0h-.91a.3.3,0,0,1-.15-.17.48.48,0,0,1-.15.17l-.07,0a.65.65,0,0,1-.35-.15c-.2,0-.2-.07-.2-.25s.05-.34.05-.64c0-.07,0-.15,0-.24h.08s.05,0,.1-.07c.24,0,.4-.07.51-.07a3.11,3.11,0,0,1,.56.05c.22,0,.44,0,.66,0l.35,0a.1.1,0,0,0,.07,0l.13-.05a2.59,2.59,0,0,1,.34,0l.37.05.08.07a1.84,1.84,0,0,0,.42-.08,8,8,0,0,0,.37-.89.54.54,0,0,1,.3-.3v0c0-.15.25-.27.45-.27s.2.05.25.2a.45.45,0,0,1,.08.24C42.22,67.07,42.12,67.44,42,67.88Z"/><path class="cls-1" d="M42.83,74.21l-.22.15-.12.08-.17.13-.34.2-.1.08-.17.08c-.07.15-.17.19-.37.19s-.12,0-.13-.15a.31.31,0,0,1,.2-.27v-.17c.13-.13.25-.27.35-.39l.12-.17.12-.05a.56.56,0,0,1,.35-.32l.05-.12.22-.13.19-.15a.16.16,0,0,0,.07-.15V73l.08-.15,0-.1.05-.13a2.14,2.14,0,0,1,.3-.84l.12-.07,0-.1a5.08,5.08,0,0,1,1.21-1.4h.08l.07-.07.08,0,.05-.12a1.26,1.26,0,0,1,.86-.34,1.2,1.2,0,0,1,.24,0l.07,0,.34.1.12.15.05,0a1.53,1.53,0,0,1,.1.37.42.42,0,0,1,0,.13l.05.12,0,.19-.07.22-.12.17,0,.19a2.23,2.23,0,0,1-.4.51L46,72A7.31,7.31,0,0,1,44.81,73l-.15.05-.05.1-.29.19-.12.15a.12.12,0,0,0-.07.1,1,1,0,0,0,.12.4l.08.1.05.17a1.06,1.06,0,0,0,1.36.1l.12,0,.29-.19.22,0,.05-.13.52-.45.13-.07.1-.15a1.72,1.72,0,0,1,.47-.22.56.56,0,0,1,.39-.27l.13-.13a.9.9,0,0,1,.22-.05c.12,0,.17,0,.17.13a.4.4,0,0,1-.08.22l0,.1a3.1,3.1,0,0,1-.47.51v.05c0,.13-.05.17-.24.19a2.22,2.22,0,0,1-.66.66L47,74.7l-.08,0c-.12.1-.24.22-.32.3l-.1.12-.2.13a2.06,2.06,0,0,1-1.18.54H45l-.19,0-.08.05h-.24a1,1,0,0,1-.81-.25l-.12,0-.2-.19-.1-.19-.08-.08a1.3,1.3,0,0,1-.24-.45l-.08-.34Zm2.38-2.48c0-.15.13-.22.13-.47s0-.15-.07-.15h0l-.13.08-.32.29-.3.3-.27.39a.78.78,0,0,0-.12.35,0,0,0,0,0,0,0,.22.22,0,0,0,.12-.05l.15,0s.07,0,.12-.08l.08-.15.13-.13.34-.29Z"/><path class="cls-1" d="M54.6,73.65l.19-.12c.1-.13.19-.19.27-.19l.39-.17.2-.22a.32.32,0,0,0,.24-.12.38.38,0,0,1,.25-.13l.12,0a.17.17,0,0,1,.07.13,2.36,2.36,0,0,1-.08.3l-.2.29-.27.25c0,.17-.08.22-.27.24a.48.48,0,0,1-.42.39l-.07.08-.13.07a.52.52,0,0,1-.3.15,1,1,0,0,0-.25.2,1,1,0,0,0-.39.12l-.12,0-.15,0-.22,0a1.82,1.82,0,0,1-.86-.3l-.05-.08a1,1,0,0,1-.25-.27l0-.12-.05-.05a1.58,1.58,0,0,1-.2-.37.43.43,0,0,0,0-.12c0-.07,0-.12-.12-.17a.64.64,0,0,0-.12-.37l0-.2-.08-.19a2.89,2.89,0,0,0-.25.32.55.55,0,0,0-.22.29.34.34,0,0,0-.24.3l-.05.12c-.1.12-.24.25-.37.42l-.2.12-.08.17a7.48,7.48,0,0,1-.69.81l-.27.17-.17.17a1.68,1.68,0,0,0-.4.37l-.2.08H48.4l-.22,0H48l-.19,0a.38.38,0,0,1-.32-.29l0-.08,0-.05,0-.1,0-.07a3.37,3.37,0,0,1,.3-1.28l.07-.29a6.36,6.36,0,0,0-.52.42l-.19.08a.43.43,0,0,1-.32.2c-.4.3-.62.47-.74.47s-.1,0-.15-.12l0-.13a.26.26,0,0,1,.19-.17l0-.19a.57.57,0,0,1,.25-.24,1.63,1.63,0,0,1,.39-.37c.07-.2.15-.3.35-.34l.07-.17.13-.05c0-.1.08-.17.22-.22l.07,0c.05,0,.08-.05.1-.13a7,7,0,0,1,.61-.54c.22-.07.32-.12.32-.25v0l.66-.62.08-.1.25-.2.29-.27A8.81,8.81,0,0,1,51,70q.2-.18.71-.56a1,1,0,0,1,.39-.12,5.46,5.46,0,0,0,.22-.77l.08-.1a13.17,13.17,0,0,1,.76-2l.12-.1v-.07a.56.56,0,0,1,.17-.4.73.73,0,0,0,.17-.27l.15-.17.05-.24a2.45,2.45,0,0,1,.46-.66l.15-.2.17-.1.07.05.08-.07a1.93,1.93,0,0,1,.3.07l.07.13-.05.08.07.08v.07a2.07,2.07,0,0,1-.13.62l0,.17a1.33,1.33,0,0,1-.24.64l0,.13a1.93,1.93,0,0,1-.2.62l-.08.08,0,.07,0,.1,0,.12a.38.38,0,0,0-.15.3c0,.05,0,.08,0,.13a2.2,2.2,0,0,1-.34.83c-.07.05-.12.1-.12.17s0,.05,0,.08a2.27,2.27,0,0,1-.24.51c-.1,0-.13,0-.13.07a.71.71,0,0,0,.05.15,6.2,6.2,0,0,1-.37.83l-.08.19a1.91,1.91,0,0,0-.1.61v.12l-.05.19.05.19a5.23,5.23,0,0,0,.15,1.23.66.66,0,0,0,0,.1c0,.05,0,.08.1.12l.12.25a.71.71,0,0,1,.17.29,1.88,1.88,0,0,0,.42.19,1.69,1.69,0,0,0,.27,0,.91.91,0,0,0,.17-.05Zm-4.58,0a6.24,6.24,0,0,0,.72-.88l.12-.05.1-.19c.34-.44.54-.88.77-1.2a4.63,4.63,0,0,1,.1-.88l-.17,0-.07.15-.1.13-.39.42-.08.07-.13.07,0,.12c-.12.15-.34.45-.71.91a.72.72,0,0,0-.24.39.81.81,0,0,0-.25.37.73.73,0,0,0-.24.32.48.48,0,0,1-.19.34,1.83,1.83,0,0,1-.19.35,1.12,1.12,0,0,0-.15.44l.13.05c.07,0,.15-.08.25-.24l.15-.1c.2-.24.27-.42.42-.42h0Z"/><path class="cls-1" d="M59.44,74.24l-.19.17c-.05.05-.07.07-.12.07h-.05s-.52.24-.54.34a1.79,1.79,0,0,0-.3.05.15.15,0,0,1-.12-.15c0-.1.13-.12.13-.25a.21.21,0,0,0,0-.1l.13-.15a0,0,0,0,0,0,0c.05,0,.22-.32.79-.88l.17-.1c.24-.27.45-.42.52-.71l0-.15c.13-.59.1-1,.27-1.16V71c.08-.34.2-.81.37-1.4l.2-.47V69a14.53,14.53,0,0,1,1-2.64l0-.15a7,7,0,0,1,.81-1.41l.12-.17a.63.63,0,0,1,.39-.3l.19,0c.3-.13.52-.39,1-.39a.35.35,0,0,1,.39.37.58.58,0,0,1-.05.2.56.56,0,0,1,.07.17.85.85,0,0,1-.07.24l0,.22c-.08.47-.25.89-.3,1.28l-.07.08a13.82,13.82,0,0,1-.64,1.57l-.27.64c-.1.19-.12.29-.17.29s0,0-.07,0,0,.05,0,.1a.35.35,0,0,1-.05.22,1.13,1.13,0,0,0-.19.24c-.08.29-.12.45-.22.45l-.13,0,0,.15a.29.29,0,0,1,0,.1.62.62,0,0,1-.2.44l-.05.13A9.93,9.93,0,0,0,61.39,72v0l-.2.15a.68.68,0,0,1-.24.49,4,4,0,0,0-.05.69v.54c0,.93.25,1.4.61,1.4a1.26,1.26,0,0,0,.62-.27c.59-.71.94-1,.94-1.11a1.16,1.16,0,0,0-.19-.22,1.1,1.1,0,0,1-.17.3l-.15.17-.05.12c-.07.08-.12.13-.17.13s-.39-.15-.39-.39a.67.67,0,0,1,.15-.4,2.15,2.15,0,0,1,.54-.93l.2-.24c.29-.37.44-.54.72-.54a1.16,1.16,0,0,1,.27.05h.3l.1,0c.15,0,.22.07.22.25a1.16,1.16,0,0,1-.05.27l-.08.39a2,2,0,0,1-.22.52l-.13.3A9.66,9.66,0,0,1,63,75.25l-.17.13a5.87,5.87,0,0,1-.86.86l-.17.05-.07.12a1.34,1.34,0,0,1-.81.3c-.86,0-1.21-.88-1.21-2.66v-.12A1.37,1.37,0,0,1,59.44,74.24Zm4-8.29a2.84,2.84,0,0,1-.42.51.06.06,0,0,1,0,.05A12.81,12.81,0,0,1,62.2,68l0,.12c-.3.42-.2.76-.45.79l0,.19a9.5,9.5,0,0,0-.61,2s0,.05,0,.05.15-.2.34-.51c0-.2.13-.39.39-.62l.05-.25c.15-.54.51-.77.51-1.11.07-.05.1-.08.1-.15v-.08c0-.1.13-.17.13-.35l.07-.12,0-.15a7.63,7.63,0,0,0,.61-1.57Z"/><path class="cls-1" d="M72.66,74.43l0,.08a1.45,1.45,0,0,1-.49.37l0,.08a.28.28,0,0,0-.27.19l-.05.05,0,.07a1,1,0,0,0-.32.32.67.67,0,0,0-.34.3c-.22.24-.47.52-.79.86a1.43,1.43,0,0,1-.24.29,3.74,3.74,0,0,1-.35.62.69.69,0,0,1-.25.44l0,.12-.1.07,0,.1-.05,0a.33.33,0,0,1-.17.29,1.34,1.34,0,0,1-.27.44l-.24.39-.27.34-.24.29-.08.15a.66.66,0,0,0-.3.3,2.65,2.65,0,0,1-.76.74,2.36,2.36,0,0,1-.61.13.56.56,0,0,1-.32-.1l0-.1,0-.13L66,81c.13-.25.27-.54.47-.88a.74.74,0,0,1,.25-.17c0-.07,0-.1,0-.12s.12-.13.3-.3v-.08s0-.07.07-.13c.22-.3.47-.62.72-1l.15-.1a.63.63,0,0,1,.15-.32c.34-.4.67-.81,1-1.21a3.28,3.28,0,0,1,.2-.47l0-.05.15-.37,0-.07a2.45,2.45,0,0,0,.2-.59.49.49,0,0,0,.15-.35c0-.05,0-.1,0-.15a.73.73,0,0,0,.07-.32l0-.08v-.05a2.31,2.31,0,0,0,.08-.64V73.4l-.07,0-.08.15a6.32,6.32,0,0,1-.64.51l0,.1-.07,0-.17.27c-.15.15-.37.34-.62.59-.2.1-.34.12-.37.27-.39.4-.69.61-1,.61h-.07c-.51,0-.66,0-.66-.71v-.12c0-.07,0-.1,0-.12s0-.07-.1-.1v-.22c0-.22,0-.4,0-.61L66.06,74,66,74l-.07.05-.05.1c-.24.05-.34.22-.49.24a.71.71,0,0,1-.45.27l-.19.17a.42.42,0,0,0-.29.22.9.9,0,0,1-.27.08A.16.16,0,0,1,64,75a.18.18,0,0,1,0-.08l.22-.17v-.19l.35-.39.08-.17.19,0a.32.32,0,0,1,.32-.34h.05l0-.19.12-.08a2,2,0,0,0,.44-.32l.2-.12.05-.17c.72-.74,1-1.28,1.45-1.28a.53.53,0,0,1,.52.51.21.21,0,0,1,0,.1l0,.1v.07a.36.36,0,0,1-.07.2l-.07.35a6.87,6.87,0,0,0-.32,1.42.38.38,0,0,0,.05.17l.05,0,.1-.05a2.93,2.93,0,0,1,.67-.51,2.57,2.57,0,0,0,.49-.54l.19-.13.17-.17a7.2,7.2,0,0,1,.62-.67l.07-.1a8.05,8.05,0,0,1,.83-.76l0-.13c.32-.25.47-.44.77-.44s.52.13.52.29a4.79,4.79,0,0,0-.08.51l-.1.3,0,.13a15,15,0,0,1-.77,2.38l0,.08-.12.35.13-.05c.15,0,.2,0,.2-.13V74.7a2.25,2.25,0,0,1,.86-.76,2,2,0,0,1,.56-.57l.25-.12a.37.37,0,0,0,.25-.22,1.26,1.26,0,0,0,.25-.15c.12-.12.2-.19.29-.19s.25,0,.25.1a.28.28,0,0,1,0,.08.54.54,0,0,0-.05.24,3,3,0,0,1-.54.57c0,.17,0,.22-.22.24a1.94,1.94,0,0,1-.44.49Z"/><g id="_Group_" data-name="&lt;Group&gt;"><g id="_Group_2" data-name="&lt;Group&gt;"><g id="_Group_3" data-name="&lt;Group&gt;"><g id="_Group_4" data-name="&lt;Group&gt;"><g id="_Group_5" data-name="&lt;Group&gt;"><g id="_Group_6" data-name="&lt;Group&gt;"><g id="_Group_7" data-name="&lt;Group&gt;"><g id="_Group_8" data-name="&lt;Group&gt;"><path id="_Path_" data-name="&lt;Path&gt;" class="cls-2" d="M91.85,79.8v-3.6a5.71,5.71,0,0,0,5.31-7.79,5.38,5.38,0,0,0-3.21-3.21,5.71,5.71,0,0,0-7.79,5.31h-3.6A9.32,9.32,0,0,1,94.8,61.69a9,9,0,0,1,5.86,5.86A9.32,9.32,0,0,1,91.85,79.8Z"/></g><polygon id="_Path_2" data-name="&lt;Path&gt;" class="cls-3" points="91.85 76.22 88.27 76.22 88.27 72.63 88.27 72.63 91.85 72.63 91.85 72.63 91.85 76.22"/><polygon id="_Path_3" data-name="&lt;Path&gt;" class="cls-3" points="88.27 78.97 85.52 78.97 85.51 78.97 85.51 76.22 88.27 76.22 88.27 78.97 88.27 78.97"/><polygon id="_Path_4" data-name="&lt;Path&gt;" class="cls-3" points="85.52 76.22 83.21 76.22 83.21 76.21 83.21 73.91 83.21 73.91 85.51 73.91 85.52 73.91 85.52 76.22"/></g></g></g><g id="_Group_9" data-name="&lt;Group&gt;"><path id="_Compound_Path_" data-name="&lt;Compound Path&gt;" class="cls-2" d="M115.61,66.6a6.76,6.76,0,0,0-3.93-1.11h-3.36V76.17h3.36A6.53,6.53,0,0,0,115.62,75,4.06,4.06,0,0,0,117,73.28a6.23,6.23,0,0,0,.48-2.52,6.07,6.07,0,0,0-.48-2.49A3.87,3.87,0,0,0,115.61,66.6Zm-5.33.69h1.06a5.4,5.4,0,0,1,2.88.69,3,3,0,0,1,1.23,2.78,3.22,3.22,0,0,1-1.23,2.9h0a5.14,5.14,0,0,1-2.86.7h-1.07Z"/><path id="_Path_5" data-name="&lt;Path&gt;" class="cls-2" d="M119.79,65.36a1.13,1.13,0,0,0-.83.34,1.08,1.08,0,0,0-.34.81,1.17,1.17,0,1,0,2.34,0,1.08,1.08,0,0,0-.34-.81A1.13,1.13,0,0,0,119.79,65.36Z"/><rect id="_Path_6" data-name="&lt;Path&gt;" class="cls-2" x="118.83" y="68.65" width="1.89" height="7.52"/><path id="_Compound_Path_2" data-name="&lt;Compound Path&gt;" class="cls-2" d="M127.59,69.28a2.85,2.85,0,0,0-1.9-.8,3.39,3.39,0,0,0-2.58,1.07,3.76,3.76,0,0,0-1,2.7,3.85,3.85,0,0,0,1,2.69A3.45,3.45,0,0,0,125.7,76a2.94,2.94,0,0,0,1.87-.6v.17a2,2,0,0,1-.5,1.44,1.83,1.83,0,0,1-1.36.5,2.39,2.39,0,0,1-2.09-1.24l-1.29,1.24,0,0a4.6,4.6,0,0,0,1.27,1.14,3.83,3.83,0,0,0,2.1.55,3.63,3.63,0,0,0,2.7-1,3.75,3.75,0,0,0,1-2.73V68.65h-1.86Zm-.5,4.44a1.63,1.63,0,0,1-1.3.56,1.61,1.61,0,0,1-1.29-.56,2.17,2.17,0,0,1-.49-1.47,2.21,2.21,0,0,1,.49-1.49,1.77,1.77,0,0,1,2.59,0,2.19,2.19,0,0,1,.5,1.49A2.15,2.15,0,0,1,127.1,73.72Z"/><rect id="_Path_7" data-name="&lt;Path&gt;" class="cls-2" x="131.07" y="68.65" width="1.89" height="7.52"/><path id="_Path_8" data-name="&lt;Path&gt;" class="cls-2" d="M132,65.36a1.13,1.13,0,0,0-.83.34,1.08,1.08,0,0,0-.34.81,1.17,1.17,0,1,0,2.34,0,1.08,1.08,0,0,0-.34-.81A1.13,1.13,0,0,0,132,65.36Z"/><path id="_Path_9" data-name="&lt;Path&gt;" class="cls-2" d="M137.11,66.62h-1.86v2h-1.08v1.72h1.08V73.5a3,3,0,0,0,.58,2.08,2.77,2.77,0,0,0,2,.61c.31,0,.62,0,.92,0h.09V74.42l-.65,0a1.24,1.24,0,0,1-.89-.23,1.57,1.57,0,0,1-.22-1V70.37h1.76V68.65h-1.76Z"/><rect id="_Path_10" data-name="&lt;Path&gt;" class="cls-2" x="147.75" y="65.49" width="1.89" height="10.68"/><path id="_Path_11" data-name="&lt;Path&gt;" class="cls-2" d="M168.75,73.48a5.31,5.31,0,0,1-1,.88h0a1.79,1.79,0,0,1-1,.25,1.73,1.73,0,0,1-1.37-.62,2.59,2.59,0,0,1,0-3.18,1.71,1.71,0,0,1,1.36-.62,2.51,2.51,0,0,1,1.8,1l1.25-1.2h0a3.73,3.73,0,0,0-3.1-1.56,3.64,3.64,0,0,0-2.68,1.12,4.12,4.12,0,0,0,0,5.61,3.63,3.63,0,0,0,2.68,1.12A3.75,3.75,0,0,0,170,74.66Z"/><path id="_Compound_Path_3" data-name="&lt;Compound Path&gt;" class="cls-2" d="M176.52,69.7a2.84,2.84,0,0,0-1.09-.89,3.55,3.55,0,0,0-1.56-.33,3.21,3.21,0,0,0-2.57,1.16,4.3,4.3,0,0,0-.95,2.82,3.9,3.9,0,0,0,1,2.8,3.63,3.63,0,0,0,2.73,1.08,3.77,3.77,0,0,0,3.11-1.53l0-.05L176,73.56h0a5.38,5.38,0,0,1-.42.43,2.33,2.33,0,0,1-.55.41,2.11,2.11,0,0,1-1,.21,1.84,1.84,0,0,1-1.29-.46,1.73,1.73,0,0,1-.54-1.14h5l0-.69a4.9,4.9,0,0,0-.2-1.4A4.09,4.09,0,0,0,176.52,69.7Zm-4.14,1.77a1.86,1.86,0,0,1,.49-.89,1.36,1.36,0,0,1,1-.38,1.38,1.38,0,0,1,1.06.39,1.41,1.41,0,0,1,.38.88Z"/><path id="_Compound_Path_4" data-name="&lt;Compound Path&gt;" class="cls-2" d="M183.79,69.21h0a3.53,3.53,0,0,0-2.36-.74,3.83,3.83,0,0,0-1.75.41,3.1,3.1,0,0,0-1.28,1.21l0,0,1.21,1.16a2,2,0,0,1,1.79-1.07,1.48,1.48,0,0,1,1,.32,1,1,0,0,1,.37.81v.37a4.78,4.78,0,0,0-1.39-.22,3.66,3.66,0,0,0-2.28.66,2.24,2.24,0,0,0-.87,1.88,2.16,2.16,0,0,0,.73,1.71,2.76,2.76,0,0,0,1.83.62,3.17,3.17,0,0,0,2-.79v.62h1.86V71.33A2.65,2.65,0,0,0,183.79,69.21Zm-3.36,4.08a1.57,1.57,0,0,1,.9-.23,4.22,4.22,0,0,1,1.44.27v.74a2.31,2.31,0,0,1-1.63.58,1.17,1.17,0,0,1-.76-.22.67.67,0,0,1-.26-.55A.68.68,0,0,1,180.43,73.29Z"/><path id="_Path_12" data-name="&lt;Path&gt;" class="cls-2" d="M191.94,69.36a2.82,2.82,0,0,0-2.2-.89,2.56,2.56,0,0,0-1.82.64v-.47h-1.86v7.52H188V72a2.06,2.06,0,0,1,.4-1.34,1.36,1.36,0,0,1,1.12-.48,1.21,1.21,0,0,1,1,.43,1.8,1.8,0,0,1,.36,1.18v4.36h1.89V71.81A3.56,3.56,0,0,0,191.94,69.36Z"/><path id="_Compound_Path_5" data-name="&lt;Compound Path&gt;" class="cls-2" d="M145.37,69.21h0a3.53,3.53,0,0,0-2.36-.74,3.83,3.83,0,0,0-1.75.41A3.1,3.1,0,0,0,140,70.09l0,0,1.21,1.16A2,2,0,0,1,143,70.2a1.48,1.48,0,0,1,1,.32,1,1,0,0,1,.37.81v.37a4.78,4.78,0,0,0-1.39-.22,3.66,3.66,0,0,0-2.28.66,2.24,2.24,0,0,0-.87,1.88,2.16,2.16,0,0,0,.73,1.71,2.76,2.76,0,0,0,1.83.62,3.17,3.17,0,0,0,2-.79v.62h1.86V71.33A2.65,2.65,0,0,0,145.37,69.21ZM142,73.29a1.57,1.57,0,0,1,.9-.23,4.22,4.22,0,0,1,1.44.27v.74a2.31,2.31,0,0,1-1.63.58,1.17,1.17,0,0,1-.76-.22.67.67,0,0,1-.26-.55A.68.68,0,0,1,142,73.29Z"/><path id="_Compound_Path_6" data-name="&lt;Compound Path&gt;" class="cls-2" d="M156.5,76.33a5.5,5.5,0,1,1,5.5-5.5A5.51,5.51,0,0,1,156.5,76.33Zm0-9.07a3.56,3.56,0,1,0,3.56,3.56A3.57,3.57,0,0,0,156.5,67.26Z"/></g></g></g></g></g><path class="cls-1" d="M204.38,74.69c-.07,0-.08-.07-.13-.07s-.07,0-.11.08l-.1.11c-.16.15-.31.11-.38.25l-.13.08-.11.11-.13.1a.43.43,0,0,1-.18,0l-.11,0,0-.08c0-.18,0-.28.16-.33l0-.18c.13-.11.26-.25.39-.38l0-.18h.07a.19.19,0,0,0,.2-.13l.08-.15.25-.1a1.16,1.16,0,0,1,.31-.38,4.55,4.55,0,0,1,.48-.36l.1,0a1.12,1.12,0,0,1,.33-.39l.26-.21c.2-.23.36-.39.44-.48l.15,0v-.11l.59-.44.21-.13a.45.45,0,0,1,.2-.15l.13-.15.1-.07a.75.75,0,0,1,.38-.3l.08,0,.07-.11c.3-.23.56-.39.77-.54l.21-.13a.58.58,0,0,1,.26-.1c.1,0,.15-.08.21-.08l.21,0a.45.45,0,0,1,.38.21s0,0,0,.08.07,0,.07.07a1.26,1.26,0,0,1-.69.7l-.11.13c0,.1-.25.26-.67.64l-.13.08-.11.15-.15.13L208,72l-.15.08,0,.1-.23.23-.16.18-.16.07c-.13.18-.31.41-.56.69l-.28.25-.25.25a.55.55,0,0,1-.16.26l-.1.3.07,0,.13,0,.18-.13.16,0,.1-.08.15-.18.08,0,.13,0c0-.15.1-.15.23-.21l0-.11.18-.13a7.06,7.06,0,0,1,.71-.56l.26-.3.34-.3a.89.89,0,0,1,.72-.3c.15,0,.31.16.31.44v0l0,.13,0,.08,0,.41,0,.15,0,.11,0,.23a.61.61,0,0,0,.61.52c.16,0,.59-.33.59-.44s.16-.08.46-.21l.18-.21a.34.34,0,0,0,.28-.15l.1-.08.11,0a.17.17,0,0,1,.18.15v0a.35.35,0,0,1-.1.23,1.59,1.59,0,0,1-.46.54l0,.18-.18,0a.57.57,0,0,1-.39.38.64.64,0,0,1-.38.3,1.1,1.1,0,0,1-.93.49A1.26,1.26,0,0,1,208.38,74s0-.15,0-.33a.54.54,0,0,0-.25.18L208,74l-.28.16-.2.2c-.08.08-.13.13-.18.13l-.11,0v0c0,.3-.64.9-1.52,1.3a1.21,1.21,0,0,1-.66.25c-.25,0-.67-.31-.67-.62a1.74,1.74,0,0,1,.23-.72l.16-.36C204.5,74.38,204.5,74.69,204.38,74.69Z"/><path class="cls-1" d="M211.3,73.25a13.52,13.52,0,0,1,2.25-2.36l.16,0,.18-.11.18-.07.11,0,.11,0c.31.23.43.39.43.61a1.4,1.4,0,0,1-.07.41l0,.28q-.07.32-.15.54l-.11.16v.15a11.06,11.06,0,0,0-.43,1.13l-.08.07a.39.39,0,0,1,0,.13c0,.15-.15.18-.15.34v.07l.34-.31a3,3,0,0,1,.52-.61l.11,0,0-.08,0-.1a.57.57,0,0,1,.2-.25l.25-.15.11-.18a2.21,2.21,0,0,1,1.44-.8c.3,0,.49.1.56.3l.15.16c.11.26.25.52.38.82l0,.18c.23.15.21.57.51.57a.72.72,0,0,0,.23,0l.07,0,.07-.11.2-.15.13-.13c.54-.13.82-.61,1.13-.61.11,0,.15,0,.15.16a2.36,2.36,0,0,0-.08.28l-.11.13a12.3,12.3,0,0,1-1,1.08l-.08.08-.13.08c0,.18-.15.21-.33.31l-.11.11-.33.13a.74.74,0,0,1-.31.1c-.34,0-.75-.34-1-1l0-.16a3.13,3.13,0,0,1-.54-.59.43.43,0,0,0-.18,0c-.15,0-.34.16-.66.43l-.15,0-.13.18a.8.8,0,0,1-.41.3l-.23.34a15.31,15.31,0,0,1-1.13,1.2.94.94,0,0,1-.89.44c-.2,0-.26,0-.31-.25l0-.23,0-.08,0-.15a15.9,15.9,0,0,0,.44-1.64s0-.08.1-.23l.08-.13a.24.24,0,0,1,0-.11c0-.16.18-.41.18-.69,0,0-.07-.08-.15-.08-.43,0-.48.38-.67.49l-.2.26-.18.16-.11,0,0,0,0,.08-.07.1c-.08,0-.13.07-.15.11l-.15.13a5.25,5.25,0,0,1-1.36.92.15.15,0,0,1-.16-.16c0-.11.07-.2.21-.28V74.8a4.17,4.17,0,0,1,1-1,.16.16,0,0,0,0,0s0,0,0,0h0s.08,0,.1-.16l.11-.1.16-.15Z"/><path class="cls-1" d="M226.21,73.93l.18-.11c.1-.13.18-.18.26-.18l.38-.16.2-.21a.31.31,0,0,0,.23-.11.37.37,0,0,1,.25-.13l.11,0a.17.17,0,0,1,.07.13,2.25,2.25,0,0,1-.08.3l-.2.28-.26.25c0,.16-.08.21-.26.23a.47.47,0,0,1-.41.38l-.07.08-.13.07a.51.51,0,0,1-.3.15,1,1,0,0,0-.25.2.92.92,0,0,0-.38.11l-.11,0-.15,0-.21,0a1.77,1.77,0,0,1-.84-.3l0-.08a.94.94,0,0,1-.25-.26l0-.11,0,0a1.54,1.54,0,0,1-.2-.36.42.42,0,0,0,0-.11c0-.07,0-.11-.11-.16a.62.62,0,0,0-.11-.36l0-.2-.08-.18a2.85,2.85,0,0,0-.25.31.53.53,0,0,0-.21.28.33.33,0,0,0-.23.3l0,.11c-.1.11-.23.25-.36.41l-.2.11-.08.16a7.3,7.3,0,0,1-.67.79l-.26.16-.16.16a1.64,1.64,0,0,0-.39.36l-.2.08h-.11l-.21,0h-.13l-.18,0a.37.37,0,0,1-.31-.28l0-.08,0,0,0-.1,0-.07a3.28,3.28,0,0,1,.3-1.25l.07-.28a6.18,6.18,0,0,0-.51.41l-.18.08a.42.42,0,0,1-.31.2c-.39.3-.61.46-.72.46s-.1,0-.15-.11l0-.13a.25.25,0,0,1,.18-.16l0-.18a.56.56,0,0,1,.25-.23,1.59,1.59,0,0,1,.38-.36c.07-.2.15-.3.34-.33l.07-.16.13,0c0-.1.08-.16.21-.21l.07,0s.08,0,.1-.13a6.91,6.91,0,0,1,.59-.52c.21-.07.31-.11.31-.25v0l.64-.61.08-.1.25-.2.28-.26a8.55,8.55,0,0,1,1-1q.2-.17.69-.54a1,1,0,0,1,.38-.11,5.32,5.32,0,0,0,.21-.75l.08-.1a12.81,12.81,0,0,1,.74-2l.11-.1v-.07a.54.54,0,0,1,.16-.39.71.71,0,0,0,.16-.26l.15-.16,0-.23a2.37,2.37,0,0,1,.44-.64l.15-.2.16-.1.07,0,.08-.07a1.91,1.91,0,0,1,.3.07l.07.13,0,.08.07.08v.07a2,2,0,0,1-.13.61l0,.16a1.3,1.3,0,0,1-.23.62l0,.13a1.88,1.88,0,0,1-.2.61l-.08.08,0,.07,0,.1,0,.11a.37.37,0,0,0-.15.3s0,.08,0,.13a2.13,2.13,0,0,1-.33.8c-.07,0-.11.1-.11.16s0,0,0,.08a2.21,2.21,0,0,1-.23.49c-.1,0-.13,0-.13.07a.68.68,0,0,0,0,.15,6,6,0,0,1-.36.8l-.08.18a1.86,1.86,0,0,0-.1.59v.11l0,.18,0,.18a5.08,5.08,0,0,0,.15,1.2.65.65,0,0,0,0,.1s0,.08.1.11l.11.25a.7.7,0,0,1,.16.28,1.83,1.83,0,0,0,.41.18,1.63,1.63,0,0,0,.26,0,.89.89,0,0,0,.16,0Zm-4.46,0a6.08,6.08,0,0,0,.71-.85l.11,0,.1-.18c.33-.43.52-.85.75-1.16a4.52,4.52,0,0,1,.1-.85l-.16,0-.07.15-.1.13-.38.41-.08.07-.13.07,0,.11c-.11.15-.33.44-.69.89a.7.7,0,0,0-.23.38.79.79,0,0,0-.25.36.7.7,0,0,0-.23.31A.47.47,0,0,1,221,74a1.76,1.76,0,0,1-.18.34,1.09,1.09,0,0,0-.15.43l.13,0c.07,0,.15-.08.25-.23l.15-.1c.2-.23.26-.41.41-.41h0Z"/><path class="cls-2" d="M246.69,66.61a1.43,1.43,0,0,0-.81-.42L244.6,66l-.94,7.64,1.28.16a1.43,1.43,0,0,0,.89-.21,1.12,1.12,0,0,0,.54-.9l.63-5.09a1.13,1.13,0,0,0-.31-1ZM269,56.26,242.7,53a3.24,3.24,0,0,0-3.6,2.81L235.86,82.2a3.24,3.24,0,0,0,2.82,3.6L265,89a3.24,3.24,0,0,0,3.6-2.81l3.24-26.36A3.24,3.24,0,0,0,269,56.26ZM248.44,73a3.37,3.37,0,0,1-4,3l-3.39-.42,1.49-12.1,3.47.43a3.37,3.37,0,0,1,3,3.88L248.44,73Zm8.16-5.58-3.9-.48-.35,2.81,2.38.29-.27,2.16-2.38-.29-.34,2.81,3.9.48-.27,2.16-4.55-.56a1.49,1.49,0,0,1-1.34-1.63L250.62,66a1.49,1.49,0,0,1,1.63-1.34l4.62.57-.27,2.16Zm6.55,9.36c-1.24,2.13-2.92,1.47-3.47-.43L258.16,65.4l2.38.29,1.15,8.59,3.18-8.05,2.38.29-4.11,10.25Z"/><polygon id="_Path_13" data-name="&lt;Path&gt;" class="cls-1" points="116.33 14.59 110.49 14.59 110.49 10.21 100.28 20.43 104.65 20.43 104.65 46.7 107.57 49.62 110.49 46.7 114.87 42.32 113.41 40.86 110.49 43.78 110.49 20.43 116.33 14.59"/><polygon id="_Path_14" data-name="&lt;Path&gt;" class="cls-1" points="211.63 10.21 211.63 10.21 211.63 4.38 205.79 10.21 205.79 16.05 201.41 20.43 205.79 20.43 205.79 46.7 208.71 49.62 211.63 46.7 211.63 20.43 217.46 14.59 211.63 14.59 211.63 10.21"/><rect id="_Path_15" data-name="&lt;Path&gt;" class="cls-1" x="212.91" y="1.28" width="6.19" height="6.19" transform="translate(60.17 154.02) rotate(-45)"/><polygon id="_Path_16" data-name="&lt;Path&gt;" class="cls-1" points="146.47 18.97 146.47 14.59 146.47 7.3 142.1 2.92 137.72 7.3 140.64 10.21 140.64 43.78 146.47 49.62 150.85 45.24 146.47 40.86 146.47 18.97"/><polygon id="_Path_17" data-name="&lt;Path&gt;" class="cls-1" points="146.47 18.97 150.85 23.35 150.85 45.24 156.69 39.4 156.69 20.43 150.85 14.59 146.47 18.97"/><polygon id="_Path_18" data-name="&lt;Path&gt;" class="cls-1" points="30.67 43.48 27.6 40.42 27.6 35.82 27.6 12.82 27.6 6.68 27.6 5.15 23 0.55 18.4 5.15 21.47 8.22 21.47 15.85 13.84 23.48 13.84 12.82 13.84 5.15 9.24 0.55 9.22 0.57 9.2 0.55 0 9.75 1.57 11.32 6.17 6.72 7.71 8.26 7.71 46.55 10.77 49.62 13.84 46.55 13.84 30.08 21.47 22.45 21.47 35.82 21.47 43.48 27.6 49.62 30.67 46.55 32.2 45.02 35.27 41.95 33.73 40.42 30.67 43.48"/><polygon id="_Path_19" data-name="&lt;Path&gt;" class="cls-1" points="264.13 43.78 264.13 20.43 269.97 14.59 264.13 14.59 264.13 10.21 253.91 20.43 258.29 20.43 258.29 46.7 261.21 49.62 264.13 46.7 268.51 42.32 267.05 40.86 264.13 43.78"/><polygon id="_Path_20" data-name="&lt;Path&gt;" class="cls-1" points="124.59 18.97 118.75 24.81 118.75 43.78 124.59 49.62 128.97 45.24 124.59 40.86 124.59 18.97"/><polygon id="_Path_21" data-name="&lt;Path&gt;" class="cls-1" points="124.59 18.97 128.97 23.35 128.97 45.24 134.81 39.4 134.81 20.43 128.97 14.59 124.59 18.97"/><path id="_Path_22" data-name="&lt;Path&gt;" class="cls-1" d="M178,20.39"/><polygon id="_Path_23" data-name="&lt;Path&gt;" class="cls-1" points="178.04 20.39 172.24 14.59 167.86 18.97 172.21 23.31 167.86 27.66 167.86 18.97 162.03 24.81 162.03 43.78 167.86 49.62 170.78 46.7 172.24 45.24 176.62 40.86 175.16 39.4 170.78 43.78 167.86 40.86 167.86 30.57 178.04 20.39"/><polygon id="_Path_24" data-name="&lt;Path&gt;" class="cls-1" points="44.81 18.97 38.97 24.81 38.97 43.78 44.81 49.62 49.19 45.24 44.81 40.86 44.81 18.97"/><polygon id="_Path_25" data-name="&lt;Path&gt;" class="cls-1" points="55.02 20.43 49.19 14.59 44.81 18.97 49.19 23.35 49.19 45.24 53.57 49.62 57.94 45.24 55.02 42.32 55.02 20.43"/><polygon id="_Path_26" data-name="&lt;Path&gt;" class="cls-1" points="70.62 43.78 67.7 40.86 67.7 18.97 61.87 24.81 61.87 43.78 67.7 49.62 70.62 46.7 72.08 45.24 76.46 40.86 75 39.4 70.62 43.78"/><rect id="_Path_27" data-name="&lt;Path&gt;" class="cls-1" x="68.99" y="15.83" width="6.19" height="6.19" transform="translate(7.73 56.51) rotate(-45)"/><rect id="_Path_28" data-name="&lt;Path&gt;" class="cls-1" x="88.43" y="15.88" width="6.19" height="6.19" transform="translate(13.39 70.28) rotate(-45)"/><polygon id="_Path_29" data-name="&lt;Path&gt;" class="cls-1" points="90.07 30.65 90.07 46.7 92.99 49.62 95.91 46.7 95.91 27.73 91.53 23.35 87.15 27.73 90.07 30.65"/><polygon id="_Path_30" data-name="&lt;Path&gt;" class="cls-1" points="87.15 14.59 87.15 7.3 82.77 2.92 78.39 7.3 81.31 10.21 81.31 46.7 84.23 49.62 87.15 46.7 87.15 27.73 87.15 18.97 87.15 14.59"/><polygon id="_Path_31" data-name="&lt;Path&gt;" class="cls-1" points="225.23 18.97 229.57 23.31 225.23 27.66 225.23 18.97 219.39 24.81 219.39 43.78 225.23 49.62 228.15 46.7 229.61 45.24 233.98 40.86 232.52 39.4 228.15 43.78 225.23 40.86 225.23 30.57 235.41 20.39 229.61 14.59 225.23 18.97"/><rect id="_Path_32" data-name="&lt;Path&gt;" class="cls-1" x="191.03" y="15.88" width="6.19" height="6.19" transform="translate(43.44 142.82) rotate(-45)"/><polygon id="_Path_33" data-name="&lt;Path&gt;" class="cls-1" points="180.99 18.97 183.91 21.89 183.91 26.27 183.91 30.65 183.91 46.7 186.83 49.62 189.75 46.7 189.75 30.65 189.75 26.27 189.75 18.97 185.37 14.59 180.99 18.97"/><rect id="_Path_34" data-name="&lt;Path&gt;" class="cls-1" x="240.6" y="42.14" width="6.19" height="6.19" transform="translate(39.39 185.57) rotate(-45)"/><rect id="_Path_35" data-name="&lt;Path&gt;" class="cls-1" x="244.98" y="15.88" width="6.19" height="6.19" transform="translate(59.24 180.97) rotate(-45)"/><polygon id="_Path_36" data-name="&lt;Path&gt;" class="cls-1" points="239.32 23.35 239.32 29.19 248.08 37.94 248.08 45.24 252.46 40.86 252.46 33.56 251.72 32.84 248.08 29.19 243.7 24.81 243.7 18.97 239.32 23.35"/></g></g></svg>