<svg fill="#d8d8d8" xmlns="http://www.w3.org/2000/svg" viewBox="0 0 697.32 137.22"><title>Asset 1</title><g id="Layer_2" data-name="Layer 2"><g id="Layer_1-2" data-name="Layer 1"><g id="dot"><path d="M15.91,12.57A3,3,0,0,1,17,13.8a3.63,3.63,0,0,1,.36,1.59A3.9,3.9,0,0,1,17,17a3.22,3.22,0,0,1-1.14,1.35,3.6,3.6,0,0,1-5.73-3.09,3.28,3.28,0,0,1,1.53-2.67,3.45,3.45,0,0,1,2.1-.66A3.73,3.73,0,0,1,15.91,12.57Z"/><path d="M244.2,12.57a3,3,0,0,1,1.08,1.23,3.63,3.63,0,0,1,.36,1.59,3.9,3.9,0,0,1-.36,1.59,3.22,3.22,0,0,1-1.14,1.35,3.6,3.6,0,0,1-5.73-3.09,3.28,3.28,0,0,1,1.53-2.67,3.45,3.45,0,0,1,2.1-.66A3.73,3.73,0,0,1,244.2,12.57Z"/><path d="M288.85,12.57a3,3,0,0,1,1.08,1.23,3.63,3.63,0,0,1,.36,1.59,3.9,3.9,0,0,1-.36,1.59,3.22,3.22,0,0,1-1.14,1.35,3.6,3.6,0,0,1-5.73-3.09,3.28,3.28,0,0,1,1.53-2.67,3.45,3.45,0,0,1,2.1-.66A3.73,3.73,0,0,1,288.85,12.57Z"/></g><g id="word"><path d="M27.55,39.45a2.16,2.16,0,0,1-.45,1.44,2.24,2.24,0,0,1-1.71.84,16.39,16.39,0,0,0-2.31.57q-1.47.45-3.12,1T16.6,44.52q-1.71.57-3,.87-3.78.9-5.91,0T4.63,41a11.41,11.41,0,0,1-.33-2.67,21.57,21.57,0,0,1,.09-2.67,22,22,0,0,1,.45-3.06,23.44,23.44,0,0,1,.75-2.7.47.47,0,0,1-.36-.48,2.25,2.25,0,0,1,.12-.72,13.36,13.36,0,0,1,.72-1.35A6.53,6.53,0,0,1,7,26a2.43,2.43,0,0,1,1.35-.54,3.32,3.32,0,0,1,1.41.18,2.61,2.61,0,0,1,1.29.93,1.25,1.25,0,0,1,0,1.41,24.85,24.85,0,0,0-1.35,3.48,17,17,0,0,0-.81,4.14,19.14,19.14,0,0,0,0,2.16,8.12,8.12,0,0,0,.24,1.62A2.28,2.28,0,0,0,10.24,41a3.85,3.85,0,0,0,2.37.09,16,16,0,0,0,2.64-.78q1.62-.6,3.39-1.29t3.48-1.23A10,10,0,0,1,25,37.23a2.15,2.15,0,0,1,1.83.66A2.62,2.62,0,0,1,27.55,39.45Z"/><path d="M63.49,38.79a2.16,2.16,0,0,1-.3,1.29A2.14,2.14,0,0,1,62,41c-.24.08-.49.15-.75.21a1.84,1.84,0,0,1-.87,0q-1.2.48-2.88,1.11T54,43.77a9.72,9.72,0,0,1-6.15.69,6.48,6.48,0,0,1-4.41-3.87,14.19,14.19,0,0,1-1.32-4.11q-.3-2-.48-3.33a1.13,1.13,0,0,0-1-1,2.26,2.26,0,0,0-1.23.12,7.63,7.63,0,0,0-1.47.72,13,13,0,0,0-1.29,1L35.17,35.4l-1.59,1.41A17,17,0,0,1,32,38.07a17.19,17.19,0,0,0-1.59,1.38q-.87.84-1.68,1.74A21.82,21.82,0,0,0,27.28,43a11,11,0,0,0-.93,1.47,2.45,2.45,0,0,1-1.61,1.38,3,3,0,0,1-1.79-.18,2,2,0,0,1-1.12-1,3.14,3.14,0,0,1-.27-1.32v-6.6q0-1.56,0-2.94t0-2.34a1.05,1.05,0,0,1-.9-1.08A8.79,8.79,0,0,1,21,29a4.51,4.51,0,0,1,.75-1.29,1.5,1.5,0,0,1,.85-.57,3.44,3.44,0,0,1,1.22-.09,2.88,2.88,0,0,1,1.34.45,1.61,1.61,0,0,1,.73,1.17q.06.84.12,2t.06,2.52v2.52q0,1.26-.06,2.22a11.77,11.77,0,0,1,2-2.19l2.28-2q1.26-1.2,2.61-2.4a28.41,28.41,0,0,1,2.55-2,10.93,10.93,0,0,1,3-1.62,8.1,8.1,0,0,1,3.09-.54,4.37,4.37,0,0,1,3,1,4.68,4.68,0,0,1,1.56,3.12q.3,2.34.66,4.14a14.18,14.18,0,0,0,.9,3,2.44,2.44,0,0,0,2,1.59,5.3,5.3,0,0,0,2.64-.39l4.2-1.71a26.7,26.7,0,0,1,4.14-1.35,2.2,2.2,0,0,1,2.1.39A2.62,2.62,0,0,1,63.49,38.79Z"/><path d="M99.24,27.68a2,2,0,0,1-.54,1.38,2.29,2.29,0,0,1-1.68.67q-1.32,0-3.81-.12t-4.83-.12q0,1.68.12,3.51t.33,3.54q.21,1.71.45,3.27a26.38,26.38,0,0,0,.54,2.7,2,2,0,0,1-.27,1.71,2.18,2.18,0,0,1-1.29.87,2.39,2.39,0,0,1-3-1.92,46.16,46.16,0,0,1-1.06-6.24,68.11,68.11,0,0,1-.4-7.44H79.44a1.93,1.93,0,0,1-1.65-.58,2.14,2.14,0,0,1-.57-1.46A2.32,2.32,0,0,1,77.76,26a2.36,2.36,0,0,1,1.68-.79l1.92,0q1.14,0,2.46,0,0-1.86.15-4.26t.48-5q.33-2.61.78-5.22t1-5q-.66-.3-.42-1.14a4,4,0,0,1,.48-1q.36-.57.66-1.11l.24-.63a5.34,5.34,0,0,1,.24-.57A1.88,1.88,0,0,1,88.74.06a2.16,2.16,0,0,1,1.68.27,2.94,2.94,0,0,1,1.08,1,2.53,2.53,0,0,1,.36,1.56A2.34,2.34,0,0,1,91.62,4q-.24.45-.54.93-.54,2-1,4.56t-.87,5.31q-.39,2.73-.6,5.43t-.21,4.86l1.83,0,2.46.09,2.58.15q1.29.09,2.19.2a1.89,1.89,0,0,1,1.35.73A2.27,2.27,0,0,1,99.24,27.68Z"/><path d="M137.95,37.59a2.21,2.21,0,0,1,.18,1.67,2.11,2.11,0,0,1-1.26,1.37q-2.7,1.18-5,2a15.78,15.78,0,0,1-4.77.83,13,13,0,0,1-4.32-.59,7.54,7.54,0,0,1-3.6-2.6,9.93,9.93,0,0,1-1.65-3.1q-.57-1.74-.87-2.88-.36-1.5-1.2-1.65a3.86,3.86,0,0,0-2.4.81A22.72,22.72,0,0,0,111,34.8q-1.26.93-2.61,2.07t-2.64,2.39q-1.29,1.25-2.25,2.38a3.36,3.36,0,0,1-1.5,1.13,3,3,0,0,1-1.59.15,2.4,2.4,0,0,1-1.32-.77,2.62,2.62,0,0,1-.63-1.69q-.36-4.84-.39-9.43a65.65,65.65,0,0,1,.48-8.64A40.92,40.92,0,0,1,100.14,15,21.2,21.2,0,0,1,103,9.09a2.12,2.12,0,0,1,1.5-1,3,3,0,0,1,1.68.24,2.41,2.41,0,0,1,1.2,1.32,1.9,1.9,0,0,1-.54,1.86,13.25,13.25,0,0,0-2.49,4.92,38.77,38.77,0,0,0-1.26,6.45,66.45,66.45,0,0,0-.42,6.93q0,3.48,0,6.24a27.38,27.38,0,0,1,2-1.92q1.17-1,2.34-2t2.28-1.71q1.11-.78,1.83-1.26a12.78,12.78,0,0,1,3.51-1.44,5.43,5.43,0,0,1,3.21.12,4.34,4.34,0,0,1,2.07,1.5,7.11,7.11,0,0,1,1.11,2.82,22.86,22.86,0,0,0,.75,2.82A7,7,0,0,0,123,37.35a4.65,4.65,0,0,0,1.44,1.26A5.6,5.6,0,0,0,127,39a11.64,11.64,0,0,0,3.51-.6,45.61,45.61,0,0,0,4.59-1.8,2,2,0,0,1,1.74-.15A2.45,2.45,0,0,1,137.95,37.59Z"/><path d="M160.75,38.67a2.13,2.13,0,0,1,.15,1.68,1.93,1.93,0,0,1-1.41,1.26q-1.38.48-3.54,1.35t-4.74,1.65a35.34,35.34,0,0,1-5.46,1.17,18.37,18.37,0,0,1-5.64-.09,7.46,7.46,0,0,1-4.26-2q-2.76-2.64-1.86-7.5A19.05,19.05,0,0,1,135.16,32a27.37,27.37,0,0,1,1.77-3.6,26.57,26.57,0,0,1,1.95-2.88,23.75,23.75,0,0,1,1.83-2.1q.84-.84,1.68-1.53a7.12,7.12,0,0,1,1.5-1,10.57,10.57,0,0,1,1.59-.63,8.92,8.92,0,0,1,1.8-.36,8,8,0,0,1,1.83,0,4.25,4.25,0,0,1,1.68.6,3.81,3.81,0,0,1,1.38,1.38,5.73,5.73,0,0,1,.66,1.83,8.06,8.06,0,0,1,.09,2.1,14.45,14.45,0,0,1-.33,2.13,9.46,9.46,0,0,1-2,3.69,16.8,16.8,0,0,1-3.45,3,21.4,21.4,0,0,1-4.26,2.19,16.19,16.19,0,0,1-4.38,1,3.17,3.17,0,0,0,.48,2.37,3,3,0,0,0,2,1.11,11.45,11.45,0,0,0,4.47.09,36.17,36.17,0,0,0,4.8-1.11q2.37-.72,4.5-1.56t3.51-1.26a1.87,1.87,0,0,1,1.59.09A2.37,2.37,0,0,1,160.75,38.67ZM148.33,26.91q.42-1.86-.24-2.46a1.69,1.69,0,0,0-1.2-.18,3.92,3.92,0,0,0-1.26.42,11,11,0,0,0-1.86,1.56,18.29,18.29,0,0,0-2.43,3.09,15.54,15.54,0,0,0-1.77,3.75,13.43,13.43,0,0,0,2.76-.84,15.76,15.76,0,0,0,2.7-1.44A10.75,10.75,0,0,0,147.16,29,5.3,5.3,0,0,0,148.33,26.91Z"/><path d="M203.58,22.59a2.4,2.4,0,0,1-1,.84,1.86,1.86,0,0,1-1.47,0,8.2,8.2,0,0,1-1.68-.84,9.33,9.33,0,0,0-2.16.33,25.66,25.66,0,0,0-2.76.87q-1.44.54-2.85,1.23a17.78,17.78,0,0,0-2.43,1.41q-1.56,1-1.62,1.92t1.44,1.56q1.8,1,3.54,1.74A19.55,19.55,0,0,1,196.39,34a6.44,6.44,0,0,1,2,2.76,9.13,9.13,0,0,1,.6,3.18,10.65,10.65,0,0,1-.54,3.33,11.72,11.72,0,0,1-1.44,3,25.51,25.51,0,0,1-3.75,4.5A24.75,24.75,0,0,1,188,54.51a5.78,5.78,0,0,1-2.88.78,6.48,6.48,0,0,1-2.82-.66A2.76,2.76,0,0,1,180.75,53a2.79,2.79,0,0,1,.09-1.86,2.27,2.27,0,0,1,1.35-1.23,2.34,2.34,0,0,1,2.07.39,1.61,1.61,0,0,0,1.08.33,2.22,2.22,0,0,0,1.08-.33,23.57,23.57,0,0,0,3.87-3,16.82,16.82,0,0,0,2.91-3.45,8.17,8.17,0,0,0,1-2,6.05,6.05,0,0,0,.3-1.8,3.32,3.32,0,0,0-1-2.58,13.33,13.33,0,0,0-3.06-2q-1.92-.93-4.2-1.95a7.52,7.52,0,0,1-3.06-2.1,4.21,4.21,0,0,1-1-2.7,5,5,0,0,1,1.08-2.88A11.67,11.67,0,0,1,186.43,23a30.07,30.07,0,0,1,2.7-1.62,31.24,31.24,0,0,1,3.3-1.53,29.8,29.8,0,0,1,3.63-1.17,17.36,17.36,0,0,1,3.69-.54,5,5,0,0,1,2.16.33,3.69,3.69,0,0,1,1.5,1.05,2.27,2.27,0,0,1,.66,1.56A2.49,2.49,0,0,1,203.58,22.59Z"/><path d="M230.34,33a5.58,5.58,0,0,1-1.14,3.48,10.16,10.16,0,0,1-3.54,2.94l-.93.45-1.26.57q-.69.3-1.35.63t-1.08.57q-.6.36-1.44.78t-1.8.84a14.79,14.79,0,0,1-1.92.69,6.48,6.48,0,0,1-1.74.27,3.14,3.14,0,0,1-2-.69,2.16,2.16,0,0,1-.78-1.53,3.33,3.33,0,0,1,1.14-2.34,3.13,3.13,0,0,1,1.41-.63,2.42,2.42,0,0,1,1.47.15,2.3,2.3,0,0,0,.72-.18l1.05-.42a10.05,10.05,0,0,0,1.14-.57l1-.63c.28-.16.62-.33,1-.51l1.17-.51,1.05-.42a3,3,0,0,0,.72-.36,4.38,4.38,0,0,0,1.53-1.26A2.25,2.25,0,0,0,225.3,33a2.21,2.21,0,0,0-.66-1.5,5.62,5.62,0,0,0-1.86-1.26q-.72-.36-2-.87t-2.79-1q-1.53-.51-3.18-1a22,22,0,0,0-3.15-.63q-.42,3.9-.78,8.22t-.6,8.64q-.24,4.32-.36,8.4t-.06,7.5a2.35,2.35,0,0,1,1.08,1.8,4,4,0,0,1-.18,1.44,2.88,2.88,0,0,1-.84,1.38,3.18,3.18,0,0,1-1.34.9,2.51,2.51,0,0,1-1.37.09,2.16,2.16,0,0,1-1.12-.69,2.61,2.61,0,0,1-.61-1.44,5.9,5.9,0,0,1-.15-1.17c0-.46,0-.91,0-1.35q-.06-4.56.09-9.15t.43-9q.27-4.41.61-8.46t.64-7.59a6.25,6.25,0,0,0-.85-.06h-.79a5.73,5.73,0,0,0-.78-.06,3.33,3.33,0,0,1-.78-.12,2.49,2.49,0,0,1-1.23-.84,1.91,1.91,0,0,1-.39-1.14,2.63,2.63,0,0,1,.66-1.74,2.38,2.38,0,0,1,2-.72,52.73,52.73,0,0,1,20.28,4.86,9.32,9.32,0,0,1,3.87,2.94A6.08,6.08,0,0,1,230.34,33Z"/><path d="M255.84,39.45a2.16,2.16,0,0,1-.45,1.44,2.24,2.24,0,0,1-1.71.84,16.39,16.39,0,0,0-2.31.57q-1.47.45-3.12,1t-3.36,1.17q-1.71.57-3,.87-3.78.9-5.91,0T232.92,41a11.41,11.41,0,0,1-.33-2.67,21.57,21.57,0,0,1,.09-2.67,22,22,0,0,1,.45-3.06,23.44,23.44,0,0,1,.75-2.7.47.47,0,0,1-.36-.48,2.25,2.25,0,0,1,.12-.72,13.36,13.36,0,0,1,.72-1.35,6.53,6.53,0,0,1,1-1.29,2.43,2.43,0,0,1,1.35-.54,3.32,3.32,0,0,1,1.41.18,2.61,2.61,0,0,1,1.29.93,1.25,1.25,0,0,1,0,1.41,24.85,24.85,0,0,0-1.35,3.48,17,17,0,0,0-.81,4.14,19.14,19.14,0,0,0,0,2.16,8.12,8.12,0,0,0,.24,1.62A2.28,2.28,0,0,0,238.53,41a3.85,3.85,0,0,0,2.37.09,16,16,0,0,0,2.64-.78q1.62-.6,3.39-1.29t3.48-1.23a10,10,0,0,1,2.91-.54,2.15,2.15,0,0,1,1.83.66A2.62,2.62,0,0,1,255.84,39.45Z"/><path d="M275.59,31.11a2.12,2.12,0,0,1-1.11.9,2,2,0,0,1-1.59-.24,5,5,0,0,0-1.17-.39,2.36,2.36,0,0,0-1,0,12.51,12.51,0,0,0-2.25.54q-1.29.42-2.73,1a28.79,28.79,0,0,0-2.85,1.38q-1.41.78-2.67,1.56a13.17,13.17,0,0,0-1.74,1.32,5.1,5.1,0,0,0-1,1.2A6.11,6.11,0,0,0,256.8,40q-.18.75-.3,1.59a2.34,2.34,0,0,1-.75,1.65,2.27,2.27,0,0,1-1.47.51,2.17,2.17,0,0,1-1.5-.6,2.48,2.48,0,0,1-.72-1.8q-.06-1.14-.06-2.64v-3q0-1.56.09-3t.21-2.49a.66.66,0,0,1-.51-.48.87.87,0,0,1,.15-.72,7.39,7.39,0,0,0,.6-1.08q.24-.54.48-1.14a1.54,1.54,0,0,1,1-1,3.28,3.28,0,0,1,1.59,0,3,3,0,0,1,1.17.78,1.45,1.45,0,0,1,.33,1.38q-.12.54-.24,1.26c-.08.48-.15,1-.21,1.5s-.1,1-.12,1.53,0,.93,0,1.29a5.77,5.77,0,0,1,.81-.78l.87-.66a29.41,29.41,0,0,1,3.06-1.8q1.74-.9,3.54-1.65a29.28,29.28,0,0,1,3.57-1.23,14.68,14.68,0,0,1,3.15-.54,5.35,5.35,0,0,1,2.16.3,7.55,7.55,0,0,1,1.5.72,2,2,0,0,1,.84,1.62A2.86,2.86,0,0,1,275.59,31.11Z"/><path d="M300.49,39.45a2.16,2.16,0,0,1-.45,1.44,2.24,2.24,0,0,1-1.71.84,16.39,16.39,0,0,0-2.31.57q-1.47.45-3.12,1t-3.36,1.17q-1.71.57-3,.87-3.78.9-5.91,0T277.57,41a11.41,11.41,0,0,1-.33-2.67,21.57,21.57,0,0,1,.09-2.67,22,22,0,0,1,.45-3.06,23.44,23.44,0,0,1,.75-2.7.47.47,0,0,1-.36-.48,2.25,2.25,0,0,1,.12-.72A13.36,13.36,0,0,1,279,27.3,6.53,6.53,0,0,1,280,26a2.43,2.43,0,0,1,1.35-.54,3.32,3.32,0,0,1,1.41.18,2.61,2.61,0,0,1,1.29.93A1.25,1.25,0,0,1,284,28a24.85,24.85,0,0,0-1.35,3.48,17,17,0,0,0-.81,4.14,19.14,19.14,0,0,0,0,2.16,8.12,8.12,0,0,0,.24,1.62A2.28,2.28,0,0,0,283.18,41a3.85,3.85,0,0,0,2.37.09,16,16,0,0,0,2.64-.78q1.62-.6,3.39-1.29t3.48-1.23a10,10,0,0,1,2.91-.54,2.15,2.15,0,0,1,1.83.66A2.62,2.62,0,0,1,300.49,39.45Z"/><path d="M311.95,27.68a2,2,0,0,1-.54,1.38,2.29,2.29,0,0,1-1.68.67q-1.32,0-3.81-.12t-4.83-.12q0,1.68.12,3.51t.33,3.54q.21,1.71.45,3.27a26.38,26.38,0,0,0,.54,2.7,2,2,0,0,1-.27,1.71,2.18,2.18,0,0,1-1.29.87,2.39,2.39,0,0,1-3-1.92,46.16,46.16,0,0,1-1.06-6.24,68.11,68.11,0,0,1-.4-7.44h-4.38a1.93,1.93,0,0,1-1.65-.58,2.14,2.14,0,0,1-.57-1.46,2.32,2.32,0,0,1,.54-1.49,2.36,2.36,0,0,1,1.68-.79l1.92,0q1.14,0,2.46,0,0-1.86.15-4.26t.48-5q.33-2.61.78-5.22t1-5q-.66-.3-.42-1.14a4,4,0,0,1,.48-1q.36-.57.66-1.11l.24-.63a5.34,5.34,0,0,1,.24-.57A1.88,1.88,0,0,1,301.45.06a2.16,2.16,0,0,1,1.68.27,2.94,2.94,0,0,1,1.08,1,2.53,2.53,0,0,1,.36,1.56A2.34,2.34,0,0,1,304.33,4q-.24.45-.54.93-.54,2-1,4.56t-.87,5.31q-.39,2.73-.6,5.43t-.21,4.86l1.83,0,2.46.09,2.58.15q1.29.09,2.19.2a1.89,1.89,0,0,1,1.35.73A2.27,2.27,0,0,1,311.95,27.68Z"/><path d="M362.46,30.55a2.19,2.19,0,0,1-.24,1,1.59,1.59,0,0,1-.72.73,9.77,9.77,0,0,1-2.7.3,5.83,5.83,0,0,1,1,3.24A7.08,7.08,0,0,1,358,40.65a20.42,20.42,0,0,1-7.2,5.64,13.51,13.51,0,0,1-3.54,1.08,30.4,30.4,0,0,1-4,.36q-5.46.12-7.5-3.37-1.62-2.83-.6-7.64a15.86,15.86,0,0,1,1.11-3.46,15,15,0,0,1,1.83-3,15.54,15.54,0,0,1,2.4-2.47,14.83,14.83,0,0,1,2.76-1.8,5.81,5.81,0,0,1,2.76-.63,3.89,3.89,0,0,1,2.64,1.17,4.43,4.43,0,0,1,1.2-.21,4,4,0,0,1,1.14.09,7.5,7.5,0,0,1,2.16.63,6.93,6.93,0,0,1,1.86,1.17h5a2.33,2.33,0,0,1,1.77.73A2.12,2.12,0,0,1,362.46,30.55Zm-8,7.38a3,3,0,0,0,.69-2.9,4.56,4.56,0,0,0-1.83-2.47l-2.13,0q-1.23,0-2.31,0a5.34,5.34,0,0,1-2.67-.57,1.17,1.17,0,0,1-.69-1.47.7.7,0,0,0-.63-.06l-.81.3a11.28,11.28,0,0,0-2.64,2.71,9.37,9.37,0,0,0-1.74,4.22q-.54,2.9.36,4.22a3.53,3.53,0,0,0,3.18,1.45,14.1,14.1,0,0,0,3.15-.21,11.35,11.35,0,0,0,2.49-.75,12,12,0,0,0,3-1.87A19.7,19.7,0,0,0,354.48,37.92Z"/><path d="M389.95,8.07a2.45,2.45,0,0,1-.87,1.32,2.18,2.18,0,0,1-1.35.48,2,2,0,0,1-1.44-.3,1.69,1.69,0,0,1-.78-1.26,1.45,1.45,0,0,1-.12-.54,2.6,2.6,0,0,0-.12-.66,1.92,1.92,0,0,0-.69-1.05,1.44,1.44,0,0,0-1-.33,5.2,5.2,0,0,0-2.31.84,14.18,14.18,0,0,0-2.43,1.86,10.49,10.49,0,0,0-1.5,1.8A18.91,18.91,0,0,0,376,12.45a28.92,28.92,0,0,0-1.89,5.1,54.11,54.11,0,0,0-1.23,5.82l5-.54,5.43-.6a2,2,0,0,1,1.83.48,2.12,2.12,0,0,1,.63,1.5,2.67,2.67,0,0,1-.48,1.5,2,2,0,0,1-1.56.84q-2.76.48-5.79.81l-5.61.63q-.35,3.78-.38,7.71t.18,7.44q.21,3.51.6,6.27a21,21,0,0,0,.93,4.2,2.72,2.72,0,0,0,.69,1.08,4.66,4.66,0,0,1,.81,1,2,2,0,0,1-.3,2.7,2.38,2.38,0,0,1-1.53.69,3,3,0,0,1-1.52-.33,5.67,5.67,0,0,1-2.57-3.42A40.37,40.37,0,0,1,368,49.17q-.41-3.48-.53-7.14t-.06-7.23q.06-3.57.3-6.45l-1.71.21a15.48,15.48,0,0,1-1.71.09,2,2,0,0,1-1.65-.57,2.12,2.12,0,0,1-.57-1.47,2.17,2.17,0,0,1,.48-1.5,2.28,2.28,0,0,1,1.68-.84q.84-.12,1.89-.18t2-.18a52.82,52.82,0,0,1,1.4-7,39.18,39.18,0,0,1,2.28-6.33,22.77,22.77,0,0,1,3.59-5.22A19.63,19.63,0,0,1,376.89,4,13.65,13.65,0,0,1,379,2.58a17,17,0,0,1,2.46-1.08,8.05,8.05,0,0,1,2.67-.45,5.9,5.9,0,0,1,4.17,1.62,5.42,5.42,0,0,1,1.17,1.62,5.06,5.06,0,0,1,.48,1.8A5.51,5.51,0,0,1,389.95,8.07Z"/><path d="M436.38,30.55a2.21,2.21,0,0,1-.24,1,1.59,1.59,0,0,1-.72.73,9.76,9.76,0,0,1-2.7.3,5.83,5.83,0,0,1,1,3.24,7.28,7.28,0,0,1-.36,2.34,7.18,7.18,0,0,1-1.47,2.52,20.41,20.41,0,0,1-7.2,5.64,13.51,13.51,0,0,1-3.54,1.08,30.37,30.37,0,0,1-4,.36q-5.46.12-7.5-3.37-1.62-2.83-.6-7.64a15.86,15.86,0,0,1,1.11-3.46,15,15,0,0,1,1.83-3,15.54,15.54,0,0,1,2.4-2.47,14.8,14.8,0,0,1,2.76-1.8,5.82,5.82,0,0,1,2.76-.63,3.89,3.89,0,0,1,2.64,1.17,4.43,4.43,0,0,1,1.2-.21,4,4,0,0,1,1.14.09,7.51,7.51,0,0,1,2.16.63A6.93,6.93,0,0,1,429,28.17h5a2.33,2.33,0,0,1,1.77.73A2.12,2.12,0,0,1,436.38,30.55Zm-8,7.38a3,3,0,0,0,.69-2.9,4.55,4.55,0,0,0-1.83-2.47l-2.13,0q-1.23,0-2.31,0a5.34,5.34,0,0,1-2.67-.57,1.17,1.17,0,0,1-.69-1.47.71.71,0,0,0-.63-.06l-.81.3a11.29,11.29,0,0,0-2.64,2.71,9.37,9.37,0,0,0-1.74,4.22q-.54,2.9.36,4.22a3.53,3.53,0,0,0,3.18,1.45,14.1,14.1,0,0,0,3.15-.21,11.35,11.35,0,0,0,2.49-.75,12,12,0,0,0,3-1.87A19.7,19.7,0,0,0,428.4,37.92Z"/><path d="M462.66,33a5.58,5.58,0,0,1-1.14,3.48A10.16,10.16,0,0,1,458,39.39l-.93.45-1.26.57q-.69.3-1.35.63t-1.08.57q-.6.36-1.44.78t-1.8.84a14.81,14.81,0,0,1-1.92.69,6.47,6.47,0,0,1-1.74.27,3.15,3.15,0,0,1-2-.69A2.16,2.16,0,0,1,443.7,42a3.33,3.33,0,0,1,1.14-2.34,3.14,3.14,0,0,1,1.41-.63,2.42,2.42,0,0,1,1.47.15,2.3,2.3,0,0,0,.72-.18l1-.42a10,10,0,0,0,1.14-.57l1-.63c.28-.16.62-.33,1-.51l1.17-.51,1-.42a3,3,0,0,0,.72-.36,4.38,4.38,0,0,0,1.53-1.26,2.25,2.25,0,0,0,.45-1.26,2.21,2.21,0,0,0-.66-1.5,5.62,5.62,0,0,0-1.86-1.26q-.72-.36-2-.87t-2.79-1q-1.53-.51-3.18-1a22,22,0,0,0-3.15-.63q-.42,3.9-.78,8.22t-.6,8.64q-.24,4.32-.36,8.4t-.06,7.5a2.34,2.34,0,0,1,1.08,1.8,4,4,0,0,1-.18,1.44,2.88,2.88,0,0,1-.84,1.38,3.18,3.18,0,0,1-1.34.9,2.51,2.51,0,0,1-1.37.09,2.16,2.16,0,0,1-1.12-.69,2.62,2.62,0,0,1-.61-1.44,5.93,5.93,0,0,1-.15-1.17q0-.69,0-1.35-.06-4.56.09-9.15t.43-9q.27-4.41.61-8.46t.64-7.59a6.25,6.25,0,0,0-.85-.06h-.79a5.73,5.73,0,0,0-.78-.06,3.34,3.34,0,0,1-.78-.12,2.49,2.49,0,0,1-1.23-.84,1.91,1.91,0,0,1-.39-1.14,2.63,2.63,0,0,1,.66-1.74,2.38,2.38,0,0,1,2-.72,52.72,52.72,0,0,1,20.28,4.86,9.32,9.32,0,0,1,3.87,2.94A6.09,6.09,0,0,1,462.66,33Z"/><path d="M490.5,38.67a2.13,2.13,0,0,1,.15,1.68,1.93,1.93,0,0,1-1.41,1.26q-1.38.48-3.54,1.35T481,44.61a35.36,35.36,0,0,1-5.46,1.17,18.37,18.37,0,0,1-5.64-.09,7.46,7.46,0,0,1-4.26-2q-2.76-2.64-1.86-7.5A19.08,19.08,0,0,1,464.91,32a27.37,27.37,0,0,1,1.77-3.6,26.57,26.57,0,0,1,2-2.88,23.75,23.75,0,0,1,1.83-2.1q.84-.84,1.68-1.53a7.12,7.12,0,0,1,1.5-1,10.55,10.55,0,0,1,1.59-.63,8.91,8.91,0,0,1,1.8-.36,8,8,0,0,1,1.83,0,4.26,4.26,0,0,1,1.68.6,3.82,3.82,0,0,1,1.38,1.38,5.74,5.74,0,0,1,.66,1.83,8.12,8.12,0,0,1,.09,2.1,14.51,14.51,0,0,1-.33,2.13,9.46,9.46,0,0,1-2,3.69,16.86,16.86,0,0,1-3.45,3,21.4,21.4,0,0,1-4.26,2.19,16.18,16.18,0,0,1-4.38,1,3.17,3.17,0,0,0,.48,2.37,3,3,0,0,0,2,1.11,11.45,11.45,0,0,0,4.47.09,36.19,36.19,0,0,0,4.8-1.11q2.37-.72,4.5-1.56T488,37.53a1.87,1.87,0,0,1,1.59.09A2.38,2.38,0,0,1,490.5,38.67ZM478.08,26.91q.42-1.86-.24-2.46a1.69,1.69,0,0,0-1.2-.18,3.91,3.91,0,0,0-1.26.42,10.92,10.92,0,0,0-1.86,1.56,18.27,18.27,0,0,0-2.43,3.09,15.56,15.56,0,0,0-1.77,3.75,13.45,13.45,0,0,0,2.76-.84,15.74,15.74,0,0,0,2.7-1.44A10.74,10.74,0,0,0,476.91,29,5.3,5.3,0,0,0,478.08,26.91Z"/><path d="M528.36,38.79A2.16,2.16,0,0,1,526.92,41c-.24.08-.49.15-.75.21a1.84,1.84,0,0,1-.87,0q-1.2.48-2.88,1.11t-3.54,1.47a9.72,9.72,0,0,1-6.15.69,6.48,6.48,0,0,1-4.41-3.87A14.17,14.17,0,0,1,507,36.48q-.3-2-.48-3.33a1.13,1.13,0,0,0-1-1,2.27,2.27,0,0,0-1.23.12,7.65,7.65,0,0,0-1.47.72,12.89,12.89,0,0,0-1.29,1L500,35.4l-1.59,1.41a16.93,16.93,0,0,1-1.59,1.26,17.19,17.19,0,0,0-1.59,1.38q-.87.84-1.68,1.74A21.72,21.72,0,0,0,492.15,43a11,11,0,0,0-.93,1.47,2.45,2.45,0,0,1-1.61,1.38,3,3,0,0,1-1.79-.18,2,2,0,0,1-1.12-1,3.14,3.14,0,0,1-.27-1.32v-6.6q0-1.56,0-2.94t0-2.34a1.05,1.05,0,0,1-.9-1.08,8.72,8.72,0,0,1,.45-1.35,4.52,4.52,0,0,1,.75-1.29,1.51,1.51,0,0,1,.85-.57,3.44,3.44,0,0,1,1.22-.09,2.88,2.88,0,0,1,1.34.45,1.61,1.61,0,0,1,.73,1.17q.06.84.12,2t.06,2.52v2.52q0,1.26-.06,2.22a11.77,11.77,0,0,1,2-2.19l2.28-2q1.26-1.2,2.61-2.4a28.34,28.34,0,0,1,2.55-2,10.92,10.92,0,0,1,3-1.62,8.1,8.1,0,0,1,3.09-.54,4.37,4.37,0,0,1,3,1A4.69,4.69,0,0,1,511,31.29q.3,2.34.66,4.14a14.1,14.1,0,0,0,.9,3,2.44,2.44,0,0,0,2,1.59,5.3,5.3,0,0,0,2.64-.39l4.2-1.71a26.7,26.7,0,0,1,4.14-1.35,2.2,2.2,0,0,1,2.1.39A2.62,2.62,0,0,1,528.36,38.79Z"/><path d="M564.24,38.79A2.16,2.16,0,0,1,562.8,41c-.24.08-.49.15-.75.21a1.84,1.84,0,0,1-.87,0q-1.2.48-2.88,1.11t-3.54,1.47a9.72,9.72,0,0,1-6.15.69,6.48,6.48,0,0,1-4.41-3.87,14.17,14.17,0,0,1-1.32-4.11q-.3-2-.48-3.33a1.13,1.13,0,0,0-1-1,2.27,2.27,0,0,0-1.23.12,7.65,7.65,0,0,0-1.47.72,12.89,12.89,0,0,0-1.29,1l-1.47,1.32-1.59,1.41a16.93,16.93,0,0,1-1.59,1.26,17.19,17.19,0,0,0-1.59,1.38q-.87.84-1.68,1.74A21.72,21.72,0,0,0,528,43a11,11,0,0,0-.93,1.47,2.45,2.45,0,0,1-1.61,1.38,3,3,0,0,1-1.79-.18,2,2,0,0,1-1.12-1,3.14,3.14,0,0,1-.27-1.32v-6.6q0-1.56,0-2.94t0-2.34a1.05,1.05,0,0,1-.9-1.08,8.72,8.72,0,0,1,.45-1.35,4.52,4.52,0,0,1,.75-1.29,1.51,1.51,0,0,1,.85-.57,3.44,3.44,0,0,1,1.22-.09,2.88,2.88,0,0,1,1.34.45,1.61,1.61,0,0,1,.73,1.17q.06.84.12,2t.06,2.52v2.52q0,1.26-.06,2.22a11.77,11.77,0,0,1,2-2.19l2.28-2q1.26-1.2,2.61-2.4a28.34,28.34,0,0,1,2.55-2,10.92,10.92,0,0,1,3-1.62,8.1,8.1,0,0,1,3.09-.54,4.37,4.37,0,0,1,3,1,4.69,4.69,0,0,1,1.56,3.12q.3,2.34.66,4.14a14.1,14.1,0,0,0,.9,3,2.44,2.44,0,0,0,2,1.59,5.3,5.3,0,0,0,2.64-.39l4.2-1.71a26.7,26.7,0,0,1,4.14-1.35,2.2,2.2,0,0,1,2.1.39A2.62,2.62,0,0,1,564.24,38.79Z"/><path d="M586.14,38.67a2.13,2.13,0,0,1,.15,1.68,1.93,1.93,0,0,1-1.41,1.26q-1.38.48-3.54,1.35t-4.74,1.65a35.36,35.36,0,0,1-5.46,1.17,18.37,18.37,0,0,1-5.64-.09,7.46,7.46,0,0,1-4.26-2q-2.76-2.64-1.86-7.5A19.08,19.08,0,0,1,560.55,32a27.37,27.37,0,0,1,1.77-3.6,26.57,26.57,0,0,1,2-2.88,23.75,23.75,0,0,1,1.83-2.1q.84-.84,1.68-1.53a7.12,7.12,0,0,1,1.5-1,10.55,10.55,0,0,1,1.59-.63,8.91,8.91,0,0,1,1.8-.36,8,8,0,0,1,1.83,0,4.26,4.26,0,0,1,1.68.6,3.82,3.82,0,0,1,1.38,1.38,5.74,5.74,0,0,1,.66,1.83,8.12,8.12,0,0,1,.09,2.1,14.51,14.51,0,0,1-.33,2.13,9.46,9.46,0,0,1-2,3.69,16.86,16.86,0,0,1-3.45,3,21.4,21.4,0,0,1-4.26,2.19,16.18,16.18,0,0,1-4.38,1,3.17,3.17,0,0,0,.48,2.37,3,3,0,0,0,2,1.11,11.45,11.45,0,0,0,4.47.09,36.19,36.19,0,0,0,4.8-1.11q2.37-.72,4.5-1.56t3.51-1.26a1.87,1.87,0,0,1,1.59.09A2.38,2.38,0,0,1,586.14,38.67ZM573.72,26.91q.42-1.86-.24-2.46a1.69,1.69,0,0,0-1.2-.18,3.91,3.91,0,0,0-1.26.42,10.92,10.92,0,0,0-1.86,1.56,18.27,18.27,0,0,0-2.43,3.09A15.56,15.56,0,0,0,565,33.09a13.45,13.45,0,0,0,2.76-.84,15.74,15.74,0,0,0,2.7-1.44A10.74,10.74,0,0,0,572.55,29,5.3,5.3,0,0,0,573.72,26.91Z"/><path d="M603.6,22.59a2.4,2.4,0,0,1-1,.84,1.86,1.86,0,0,1-1.47,0,8.21,8.21,0,0,1-1.68-.84,9.34,9.34,0,0,0-2.16.33,25.69,25.69,0,0,0-2.76.87q-1.44.54-2.85,1.23a17.79,17.79,0,0,0-2.43,1.41q-1.56,1-1.62,1.92t1.44,1.56q1.8,1,3.54,1.74A19.54,19.54,0,0,1,596.4,34a6.43,6.43,0,0,1,2,2.76,9.14,9.14,0,0,1,.6,3.18,10.66,10.66,0,0,1-.54,3.33,11.7,11.7,0,0,1-1.44,3,25.49,25.49,0,0,1-3.75,4.5A24.74,24.74,0,0,1,588,54.51a5.78,5.78,0,0,1-2.88.78,6.48,6.48,0,0,1-2.82-.66A2.75,2.75,0,0,1,580.77,53a2.79,2.79,0,0,1,.09-1.86,2.27,2.27,0,0,1,1.35-1.23,2.34,2.34,0,0,1,2.07.39,1.61,1.61,0,0,0,1.08.33,2.23,2.23,0,0,0,1.08-.33,23.63,23.63,0,0,0,3.87-3,16.83,16.83,0,0,0,2.91-3.45,8.2,8.2,0,0,0,1-2,6.07,6.07,0,0,0,.3-1.8,3.32,3.32,0,0,0-1-2.58,13.3,13.3,0,0,0-3.06-2q-1.92-.93-4.2-1.95a7.52,7.52,0,0,1-3.06-2.1,4.21,4.21,0,0,1-1-2.7,5,5,0,0,1,1.08-2.88A11.67,11.67,0,0,1,586.44,23a29.94,29.94,0,0,1,2.7-1.62,31.14,31.14,0,0,1,3.3-1.53,29.8,29.8,0,0,1,3.63-1.17,17.36,17.36,0,0,1,3.69-.54,5,5,0,0,1,2.16.33,3.68,3.68,0,0,1,1.5,1.05,2.27,2.27,0,0,1,.66,1.56A2.49,2.49,0,0,1,603.6,22.59Z"/><path d="M623.28,22.59a2.4,2.4,0,0,1-1,.84,1.86,1.86,0,0,1-1.47,0,8.21,8.21,0,0,1-1.68-.84,9.34,9.34,0,0,0-2.16.33,25.69,25.69,0,0,0-2.76.87q-1.44.54-2.85,1.23a17.79,17.79,0,0,0-2.43,1.41q-1.56,1-1.62,1.92t1.44,1.56q1.8,1,3.54,1.74A19.54,19.54,0,0,1,616.08,34a6.43,6.43,0,0,1,2,2.76,9.14,9.14,0,0,1,.6,3.18,10.66,10.66,0,0,1-.54,3.33,11.7,11.7,0,0,1-1.44,3,25.49,25.49,0,0,1-3.75,4.5,24.74,24.74,0,0,1-5.25,3.78,5.78,5.78,0,0,1-2.88.78,6.48,6.48,0,0,1-2.82-.66A2.75,2.75,0,0,1,600.45,53a2.79,2.79,0,0,1,.09-1.86,2.27,2.27,0,0,1,1.35-1.23,2.34,2.34,0,0,1,2.07.39,1.61,1.61,0,0,0,1.08.33,2.23,2.23,0,0,0,1.08-.33,23.63,23.63,0,0,0,3.87-3,16.83,16.83,0,0,0,2.91-3.45,8.2,8.2,0,0,0,1-2,6.07,6.07,0,0,0,.3-1.8,3.32,3.32,0,0,0-1-2.58,13.3,13.3,0,0,0-3.06-2q-1.92-.93-4.2-1.95a7.52,7.52,0,0,1-3.06-2.1,4.21,4.21,0,0,1-1-2.7,5,5,0,0,1,1.08-2.88A11.67,11.67,0,0,1,606.12,23a29.94,29.94,0,0,1,2.7-1.62,31.14,31.14,0,0,1,3.3-1.53,29.8,29.8,0,0,1,3.63-1.17,17.36,17.36,0,0,1,3.69-.54,5,5,0,0,1,2.16.33,3.68,3.68,0,0,1,1.5,1.05,2.27,2.27,0,0,1,.66,1.56A2.49,2.49,0,0,1,623.28,22.59Z"/><path d="M626.34,42.09c0,.68.06,1.48.06,2.4s-.05,1.91-.15,3a20.56,20.56,0,0,1-.6,3.3,16.16,16.16,0,0,1-1.29,3.33,1.57,1.57,0,0,1-1.08.9,2.25,2.25,0,0,1-1.26-.12,2,2,0,0,1-1-1,1.3,1.3,0,0,1,.15-1.38,8.69,8.69,0,0,0,.84-2.19q.3-1.23.48-2.4t.24-2.1c0-.62.06-1.09.06-1.41a.49.49,0,0,1-.39-.39,1.47,1.47,0,0,1,0-.72,5.86,5.86,0,0,1,.24-.78l.27-.69a2,2,0,0,1,.84-1,1.67,1.67,0,0,1,1-.24,1.76,1.76,0,0,1,1.08.36A1.27,1.27,0,0,1,626.34,42.09Z"/><path d="M27.91,80.07A2.45,2.45,0,0,1,27,81.39a2.18,2.18,0,0,1-1.35.48,2,2,0,0,1-1.44-.3,1.69,1.69,0,0,1-.78-1.26,1.45,1.45,0,0,1-.12-.54,2.6,2.6,0,0,0-.12-.66,1.92,1.92,0,0,0-.69-1.05,1.44,1.44,0,0,0-1-.33,5.2,5.2,0,0,0-2.31.84,14.18,14.18,0,0,0-2.43,1.86,10.49,10.49,0,0,0-1.5,1.8,18.91,18.91,0,0,0-1.32,2.22A28.92,28.92,0,0,0,12,89.55a54.11,54.11,0,0,0-1.23,5.82l5-.54,5.43-.6a2,2,0,0,1,1.83.48,2.12,2.12,0,0,1,.63,1.5,2.67,2.67,0,0,1-.48,1.5,2,2,0,0,1-1.56.84q-2.76.48-5.79.81l-5.61.63q-.35,3.78-.38,7.71t.18,7.44q.21,3.51.6,6.27a21,21,0,0,0,.93,4.2,2.72,2.72,0,0,0,.69,1.08,4.66,4.66,0,0,1,.81,1,2,2,0,0,1-.3,2.7,2.38,2.38,0,0,1-1.53.69,3,3,0,0,1-1.52-.33,5.67,5.67,0,0,1-2.57-3.42,40.37,40.37,0,0,1-1.17-6.18q-.41-3.48-.53-7.14t-.06-7.23q.06-3.57.3-6.45l-1.71.21a15.48,15.48,0,0,1-1.71.09,2,2,0,0,1-1.65-.57A2.12,2.12,0,0,1,0,98.61a2.17,2.17,0,0,1,.48-1.5,2.28,2.28,0,0,1,1.68-.84q.84-.12,1.89-.18t2-.18a52.82,52.82,0,0,1,1.4-7,39.18,39.18,0,0,1,2.28-6.33,22.77,22.77,0,0,1,3.59-5.22A19.63,19.63,0,0,1,14.86,76,13.65,13.65,0,0,1,17,74.58a17,17,0,0,1,2.46-1.08,8.05,8.05,0,0,1,2.67-.45,5.9,5.9,0,0,1,4.17,1.62,5.42,5.42,0,0,1,1.17,1.62,5.06,5.06,0,0,1,.48,1.8A5.51,5.51,0,0,1,27.91,80.07Z"/><path d="M46.75,102.55a2.19,2.19,0,0,1-.24,1,1.59,1.59,0,0,1-.72.73,9.77,9.77,0,0,1-2.7.3,5.83,5.83,0,0,1,1,3.24,7.08,7.08,0,0,1-1.83,4.86,20.42,20.42,0,0,1-7.2,5.64,13.51,13.51,0,0,1-3.54,1.08,30.4,30.4,0,0,1-4,.36q-5.46.12-7.5-3.37-1.62-2.83-.6-7.64a15.86,15.86,0,0,1,1.11-3.46,15,15,0,0,1,1.83-3,15.54,15.54,0,0,1,2.4-2.47A14.83,14.83,0,0,1,27.61,98a5.81,5.81,0,0,1,2.76-.63A3.89,3.89,0,0,1,33,98.49a4.43,4.43,0,0,1,1.2-.21,4,4,0,0,1,1.14.09,7.5,7.5,0,0,1,2.16.63,6.93,6.93,0,0,1,1.86,1.17h5a2.33,2.33,0,0,1,1.77.73A2.12,2.12,0,0,1,46.75,102.55Zm-8,7.38a3,3,0,0,0,.69-2.9,4.56,4.56,0,0,0-1.83-2.47l-2.13,0q-1.23,0-2.31,0a5.34,5.34,0,0,1-2.67-.57,1.17,1.17,0,0,1-.69-1.47.7.7,0,0,0-.63-.06l-.81.3a11.28,11.28,0,0,0-2.64,2.71A9.37,9.37,0,0,0,24,109.68q-.54,2.9.36,4.22a3.53,3.53,0,0,0,3.18,1.45,14.1,14.1,0,0,0,3.15-.21,11.35,11.35,0,0,0,2.49-.75,12,12,0,0,0,3-1.87A19.7,19.7,0,0,0,38.77,109.92Z"/><path d="M71.47,103.11a2.12,2.12,0,0,1-1.11.9,2,2,0,0,1-1.59-.24,5,5,0,0,0-1.17-.39,2.36,2.36,0,0,0-1,0,12.51,12.51,0,0,0-2.25.54q-1.29.42-2.73,1a28.79,28.79,0,0,0-2.85,1.38q-1.41.78-2.67,1.56a13.17,13.17,0,0,0-1.74,1.32,5.1,5.1,0,0,0-1,1.2,6.11,6.11,0,0,0-.66,1.59q-.18.75-.3,1.59a2.34,2.34,0,0,1-.75,1.65,2.27,2.27,0,0,1-1.47.51,2.17,2.17,0,0,1-1.5-.6,2.48,2.48,0,0,1-.72-1.8q-.06-1.14-.06-2.64v-3q0-1.56.09-3t.21-2.49a.66.66,0,0,1-.51-.48.87.87,0,0,1,.15-.72,7.39,7.39,0,0,0,.6-1.08q.24-.54.48-1.14a1.54,1.54,0,0,1,1-1,3.28,3.28,0,0,1,1.59,0,3,3,0,0,1,1.17.78A1.45,1.45,0,0,1,53,99.93q-.12.54-.24,1.26c-.08.48-.15,1-.21,1.5s-.1,1-.12,1.53,0,.93,0,1.29a5.77,5.77,0,0,1,.81-.78l.87-.66a29.41,29.41,0,0,1,3.06-1.8q1.74-.9,3.54-1.65a29.28,29.28,0,0,1,3.57-1.23,14.68,14.68,0,0,1,3.15-.54,5.35,5.35,0,0,1,2.16.3,7.55,7.55,0,0,1,1.5.72,2,2,0,0,1,.84,1.62A2.86,2.86,0,0,1,71.47,103.11Z"/><path d="M113.89,99.68a2,2,0,0,1-.54,1.38,2.29,2.29,0,0,1-1.68.67q-1.32,0-3.81-.12t-4.83-.12q0,1.68.12,3.51t.33,3.54q.21,1.71.45,3.27a26.38,26.38,0,0,0,.54,2.7,2,2,0,0,1-.27,1.71,2.18,2.18,0,0,1-1.29.87,2.39,2.39,0,0,1-3-1.92,46.16,46.16,0,0,1-1.06-6.24,68.11,68.11,0,0,1-.4-7.44H94.09a1.93,1.93,0,0,1-1.65-.58,2.14,2.14,0,0,1-.57-1.46A2.32,2.32,0,0,1,92.41,98a2.36,2.36,0,0,1,1.68-.79l1.92,0q1.14,0,2.46,0,0-1.86.15-4.26t.48-5q.33-2.61.78-5.22t1-5q-.66-.3-.42-1.14a4,4,0,0,1,.48-1q.36-.57.66-1.11l.24-.63a5.34,5.34,0,0,1,.24-.57,1.88,1.88,0,0,1,1.32-1.17,2.16,2.16,0,0,1,1.68.27,2.94,2.94,0,0,1,1.08,1,2.53,2.53,0,0,1,.36,1.56,2.34,2.34,0,0,1-.24,1.11q-.24.45-.54.93-.54,2-1,4.56t-.87,5.31q-.39,2.73-.6,5.43T103,97.11l1.83,0,2.46.09,2.58.15q1.29.09,2.19.2a1.89,1.89,0,0,1,1.35.73A2.27,2.27,0,0,1,113.89,99.68Z"/><path d="M152.59,109.59a2.21,2.21,0,0,1,.18,1.67,2.11,2.11,0,0,1-1.26,1.37q-2.7,1.18-5,2a15.78,15.78,0,0,1-4.77.83,13,13,0,0,1-4.32-.59,7.54,7.54,0,0,1-3.6-2.6,9.93,9.93,0,0,1-1.65-3.1q-.57-1.74-.87-2.88-.36-1.5-1.2-1.65a3.86,3.86,0,0,0-2.4.81,22.72,22.72,0,0,0-2.1,1.41q-1.26.93-2.61,2.07t-2.64,2.39q-1.29,1.25-2.25,2.38a3.36,3.36,0,0,1-1.5,1.13,3,3,0,0,1-1.59.15,2.4,2.4,0,0,1-1.32-.77,2.62,2.62,0,0,1-.63-1.69q-.36-4.84-.39-9.43a65.65,65.65,0,0,1,.48-8.64A40.92,40.92,0,0,1,114.79,87a21.2,21.2,0,0,1,2.88-5.88,2.12,2.12,0,0,1,1.5-1,3,3,0,0,1,1.68.24,2.41,2.41,0,0,1,1.2,1.32,1.9,1.9,0,0,1-.54,1.86A13.25,13.25,0,0,0,119,88.41a38.77,38.77,0,0,0-1.26,6.45,66.45,66.45,0,0,0-.42,6.93q0,3.48,0,6.24a27.38,27.38,0,0,1,2-1.92q1.17-1,2.34-2t2.28-1.71q1.11-.78,1.83-1.26a12.78,12.78,0,0,1,3.51-1.44,5.43,5.43,0,0,1,3.21.12,4.34,4.34,0,0,1,2.07,1.5,7.11,7.11,0,0,1,1.11,2.82,22.86,22.86,0,0,0,.75,2.82,7,7,0,0,0,1.17,2.34,4.65,4.65,0,0,0,1.44,1.26,5.6,5.6,0,0,0,2.52.42,11.64,11.64,0,0,0,3.51-.6,45.61,45.61,0,0,0,4.59-1.8,2,2,0,0,1,1.74-.15A2.45,2.45,0,0,1,152.59,109.59Z"/><path d="M175.39,110.67a2.13,2.13,0,0,1,.15,1.68,1.93,1.93,0,0,1-1.41,1.26q-1.38.48-3.54,1.35t-4.74,1.65a35.34,35.34,0,0,1-5.46,1.17,18.37,18.37,0,0,1-5.64-.09,7.46,7.46,0,0,1-4.26-2q-2.76-2.64-1.86-7.5A19.05,19.05,0,0,1,149.8,104a27.37,27.37,0,0,1,1.77-3.6,26.57,26.57,0,0,1,1.95-2.88,23.75,23.75,0,0,1,1.83-2.1q.84-.84,1.68-1.53a7.12,7.12,0,0,1,1.5-1,10.57,10.57,0,0,1,1.59-.63,8.92,8.92,0,0,1,1.8-.36,8,8,0,0,1,1.83,0,4.25,4.25,0,0,1,1.68.6,3.81,3.81,0,0,1,1.38,1.38,5.73,5.73,0,0,1,.66,1.83,8.06,8.06,0,0,1,.09,2.1,14.45,14.45,0,0,1-.33,2.13,9.46,9.46,0,0,1-2,3.69,16.8,16.8,0,0,1-3.45,3,21.4,21.4,0,0,1-4.26,2.19,16.19,16.19,0,0,1-4.38,1,3.17,3.17,0,0,0,.48,2.37,3,3,0,0,0,2,1.11,11.45,11.45,0,0,0,4.47.09,36.17,36.17,0,0,0,4.8-1.11q2.37-.72,4.5-1.56t3.51-1.26a1.87,1.87,0,0,1,1.59.09A2.37,2.37,0,0,1,175.39,110.67ZM163,98.91q.42-1.86-.24-2.46a1.69,1.69,0,0,0-1.2-.18,3.92,3.92,0,0,0-1.26.42,11,11,0,0,0-1.86,1.56,18.29,18.29,0,0,0-2.43,3.09,15.54,15.54,0,0,0-1.77,3.75,13.43,13.43,0,0,0,2.76-.84,15.76,15.76,0,0,0,2.7-1.44A10.75,10.75,0,0,0,161.8,101,5.3,5.3,0,0,0,163,98.91Z"/><path d="M225.79,110.49a2.25,2.25,0,0,1,0,1.65,2.49,2.49,0,0,1-1.53,1.35l-4,1.38a46.91,46.91,0,0,1-5.13,1.44,31.54,31.54,0,0,1-5.46.72,11.77,11.77,0,0,1-5-.78,8.83,8.83,0,0,1-5.16-5.46,28.52,28.52,0,0,1-1.32-9.72,29.79,29.79,0,0,1,.48-5.22A38.58,38.58,0,0,1,200,90.66,38,38,0,0,1,201.82,86a27.5,27.5,0,0,1,2.13-3.75,16.52,16.52,0,0,1,3.81-4,4.75,4.75,0,0,1,3.57-1,4.07,4.07,0,0,1,3,2.31,14.59,14.59,0,0,1,1.41,6.15,25.63,25.63,0,0,1,0,3.51,36.27,36.27,0,0,1-.45,3.81,38,38,0,0,1-.84,3.75,24.82,24.82,0,0,1-1.17,3.33,25.58,25.58,0,0,1-1.65,3.21q-.93,1.53-2,2.91t-2.07,2.58q-1.05,1.2-2,2.22a7.53,7.53,0,0,0,1.11.72,4.57,4.57,0,0,0,1.41.54,12,12,0,0,0,3.3,0,29.3,29.3,0,0,0,3.72-.69q1.92-.48,3.9-1.11t3.78-1.29a2.3,2.3,0,0,1,1.86.06A2.21,2.21,0,0,1,225.79,110.49ZM211.15,86.55Q211,83.25,210,83t-2.62,2.28a21.16,21.16,0,0,0-1.55,3,41.22,41.22,0,0,0-1.46,3.9,34.3,34.3,0,0,0-1.1,4.44,29.8,29.8,0,0,0-.48,4.47,14,14,0,0,0,.83,5.58q1.55-1.86,3.1-4a22.69,22.69,0,0,0,2.56-4.53,23,23,0,0,0,.74-2.31,30.06,30.06,0,0,0,.66-3q.27-1.62.42-3.24A22.33,22.33,0,0,0,211.15,86.55Z"/><path d="M248.65,102.55a2.19,2.19,0,0,1-.24,1,1.59,1.59,0,0,1-.72.73,9.77,9.77,0,0,1-2.7.3,5.83,5.83,0,0,1,1,3.24,7.08,7.08,0,0,1-1.83,4.86,20.42,20.42,0,0,1-7.2,5.64,13.51,13.51,0,0,1-3.54,1.08,30.4,30.4,0,0,1-4,.36q-5.46.12-7.5-3.37-1.62-2.83-.6-7.64a15.86,15.86,0,0,1,1.11-3.46,15,15,0,0,1,1.83-3,15.54,15.54,0,0,1,2.4-2.47,14.83,14.83,0,0,1,2.76-1.8,5.81,5.81,0,0,1,2.76-.63,3.89,3.89,0,0,1,2.64,1.17,4.43,4.43,0,0,1,1.2-.21,4,4,0,0,1,1.14.09,7.5,7.5,0,0,1,2.16.63,6.93,6.93,0,0,1,1.86,1.17h5a2.33,2.33,0,0,1,1.77.73A2.12,2.12,0,0,1,248.65,102.55Zm-8,7.38a3,3,0,0,0,.69-2.9,4.56,4.56,0,0,0-1.83-2.47l-2.13,0q-1.23,0-2.31,0a5.34,5.34,0,0,1-2.67-.57,1.17,1.17,0,0,1-.69-1.47.7.7,0,0,0-.63-.06l-.81.3a11.28,11.28,0,0,0-2.64,2.71,9.37,9.37,0,0,0-1.74,4.22q-.54,2.9.36,4.22a3.53,3.53,0,0,0,3.18,1.45,14.1,14.1,0,0,0,3.15-.21,11.35,11.35,0,0,0,2.49-.75,12,12,0,0,0,3-1.87A19.7,19.7,0,0,0,240.67,109.92Z"/><path d="M272.11,101.85a2.94,2.94,0,0,1-.54,1.65,2.17,2.17,0,0,1-1.68.93q-.66.06-1.5.06a7.72,7.72,0,0,1-1.62-.18l-1,2.61q-.57,1.41-1.23,2.88t-1.35,2.88q-.69,1.41-1.35,2.61-2.28,4-4.86,4t-4.8-3.66a18.15,18.15,0,0,1-1.08-2.16q-.54-1.26-1-2.46a29.42,29.42,0,0,1-1.17-4.92q-.39-2.58-.69-5.1a1.25,1.25,0,0,1-.42-.66,3,3,0,0,1-.12-.84,4.32,4.32,0,0,1,.09-.9l.15-.72a2.94,2.94,0,0,1,1-1.8,2.13,2.13,0,0,1,2.91.06,2.61,2.61,0,0,1,.72,1.74q.06,1,.21,2.4t.36,2.94q.21,1.56.54,3.21a28.54,28.54,0,0,0,.81,3.15q.24.66.54,1.44a7.39,7.39,0,0,0,.6,1.26,9.33,9.33,0,0,0,.72.93.83.83,0,0,0,.6.33,1.69,1.69,0,0,0,.66-.33,2.87,2.87,0,0,0,.72-.93,51.07,51.07,0,0,0,2.37-4.59q1.17-2.55,2.07-5.13a1.48,1.48,0,0,1-.57-.75,2.9,2.9,0,0,1-.15-.93,2.64,2.64,0,0,1,1.92-2.52,2.35,2.35,0,0,1,2.07,0,2.63,2.63,0,0,1,1.29,1.38,4,4,0,0,0,1.26.18h1.32a1.71,1.71,0,0,1,1.68.45A2.19,2.19,0,0,1,272.11,101.85Z"/><path d="M298.21,110.67a2.13,2.13,0,0,1,.15,1.68,1.93,1.93,0,0,1-1.41,1.26q-1.38.48-3.54,1.35t-4.74,1.65a35.34,35.34,0,0,1-5.46,1.17,18.37,18.37,0,0,1-5.64-.09,7.46,7.46,0,0,1-4.26-2q-2.76-2.64-1.86-7.5a19.05,19.05,0,0,1,1.17-4.26,27.37,27.37,0,0,1,1.77-3.6,26.57,26.57,0,0,1,1.95-2.88,23.75,23.75,0,0,1,1.83-2.1q.84-.84,1.68-1.53a7.12,7.12,0,0,1,1.5-1,10.57,10.57,0,0,1,1.59-.63,8.92,8.92,0,0,1,1.8-.36,8,8,0,0,1,1.83,0,4.25,4.25,0,0,1,1.68.6,3.81,3.81,0,0,1,1.38,1.38,5.73,5.73,0,0,1,.66,1.83,8.06,8.06,0,0,1,.09,2.1,14.45,14.45,0,0,1-.33,2.13,9.46,9.46,0,0,1-2,3.69,16.8,16.8,0,0,1-3.45,3,21.4,21.4,0,0,1-4.26,2.19,16.19,16.19,0,0,1-4.38,1,3.17,3.17,0,0,0,.48,2.37,3,3,0,0,0,2,1.11,11.45,11.45,0,0,0,4.47.09,36.17,36.17,0,0,0,4.8-1.11q2.37-.72,4.5-1.56t3.51-1.26a1.87,1.87,0,0,1,1.59.09A2.37,2.37,0,0,1,298.21,110.67ZM285.79,98.91q.42-1.86-.24-2.46a1.69,1.69,0,0,0-1.2-.18,3.92,3.92,0,0,0-1.26.42,11,11,0,0,0-1.86,1.56,18.29,18.29,0,0,0-2.43,3.09,15.54,15.54,0,0,0-1.77,3.75,13.43,13.43,0,0,0,2.76-.84,15.76,15.76,0,0,0,2.7-1.44,10.75,10.75,0,0,0,2.13-1.83A5.3,5.3,0,0,0,285.79,98.91Z"/><path d="M347.89,102.55a2.19,2.19,0,0,1-.24,1,1.59,1.59,0,0,1-.72.73,9.77,9.77,0,0,1-2.7.3,5.83,5.83,0,0,1,1,3.24,7.08,7.08,0,0,1-1.83,4.86,20.42,20.42,0,0,1-7.2,5.64,13.51,13.51,0,0,1-3.54,1.08,30.4,30.4,0,0,1-4,.36q-5.46.12-7.5-3.37-1.62-2.83-.6-7.64a15.86,15.86,0,0,1,1.11-3.46,15,15,0,0,1,1.83-3,15.54,15.54,0,0,1,2.4-2.47,14.83,14.83,0,0,1,2.76-1.8,5.81,5.81,0,0,1,2.76-.63,3.89,3.89,0,0,1,2.64,1.17,4.43,4.43,0,0,1,1.2-.21,4,4,0,0,1,1.14.09,7.5,7.5,0,0,1,2.16.63,6.93,6.93,0,0,1,1.86,1.17h5a2.33,2.33,0,0,1,1.77.73A2.12,2.12,0,0,1,347.89,102.55Zm-8,7.38a3,3,0,0,0,.69-2.9,4.56,4.56,0,0,0-1.83-2.47l-2.13,0q-1.23,0-2.31,0a5.34,5.34,0,0,1-2.67-.57,1.17,1.17,0,0,1-.69-1.47.7.7,0,0,0-.63-.06l-.81.3a11.28,11.28,0,0,0-2.64,2.71,9.37,9.37,0,0,0-1.74,4.22q-.54,2.9.36,4.22a3.53,3.53,0,0,0,3.18,1.45,14.1,14.1,0,0,0,3.15-.21,11.35,11.35,0,0,0,2.49-.75,12,12,0,0,0,3-1.87A19.7,19.7,0,0,0,339.91,109.92Z"/><path d="M375.37,80.07a2.45,2.45,0,0,1-.87,1.32,2.18,2.18,0,0,1-1.35.48,2,2,0,0,1-1.44-.3,1.69,1.69,0,0,1-.78-1.26,1.45,1.45,0,0,1-.12-.54,2.6,2.6,0,0,0-.12-.66,1.92,1.92,0,0,0-.69-1.05,1.44,1.44,0,0,0-1-.33,5.2,5.2,0,0,0-2.31.84,14.18,14.18,0,0,0-2.43,1.86,10.49,10.49,0,0,0-1.5,1.8,18.91,18.91,0,0,0-1.32,2.22,28.92,28.92,0,0,0-1.89,5.1,54.11,54.11,0,0,0-1.23,5.82l5-.54,5.43-.6a2,2,0,0,1,1.83.48,2.12,2.12,0,0,1,.63,1.5,2.67,2.67,0,0,1-.48,1.5,2,2,0,0,1-1.56.84q-2.76.48-5.79.81l-5.61.63q-.35,3.78-.38,7.71t.18,7.44q.21,3.51.6,6.27a21,21,0,0,0,.93,4.2,2.72,2.72,0,0,0,.69,1.08,4.66,4.66,0,0,1,.81,1,2,2,0,0,1-.3,2.7,2.38,2.38,0,0,1-1.53.69,3,3,0,0,1-1.52-.33,5.67,5.67,0,0,1-2.57-3.42,40.37,40.37,0,0,1-1.17-6.18q-.41-3.48-.53-7.14t-.06-7.23q.06-3.57.3-6.45l-1.71.21a15.48,15.48,0,0,1-1.71.09,2,2,0,0,1-1.65-.57,2.12,2.12,0,0,1-.57-1.47,2.17,2.17,0,0,1,.48-1.5,2.28,2.28,0,0,1,1.68-.84q.84-.12,1.89-.18t2-.18a52.82,52.82,0,0,1,1.4-7,39.18,39.18,0,0,1,2.28-6.33,22.77,22.77,0,0,1,3.59-5.22A19.63,19.63,0,0,1,362.31,76a13.65,13.65,0,0,1,2.1-1.38,17,17,0,0,1,2.46-1.08,8.05,8.05,0,0,1,2.67-.45,5.9,5.9,0,0,1,4.17,1.62,5.42,5.42,0,0,1,1.17,1.62,5.06,5.06,0,0,1,.48,1.8A5.51,5.51,0,0,1,375.37,80.07Z"/><path d="M421.8,102.55a2.19,2.19,0,0,1-.24,1,1.59,1.59,0,0,1-.72.73,9.77,9.77,0,0,1-2.7.3,5.82,5.82,0,0,1,1,3.24,7.3,7.3,0,0,1-.36,2.34,7.2,7.2,0,0,1-1.47,2.52,20.42,20.42,0,0,1-7.2,5.64,13.51,13.51,0,0,1-3.54,1.08,30.4,30.4,0,0,1-4,.36q-5.46.12-7.5-3.37-1.62-2.83-.6-7.64a15.86,15.86,0,0,1,1.11-3.46,15,15,0,0,1,1.83-3,15.54,15.54,0,0,1,2.4-2.47,14.83,14.83,0,0,1,2.76-1.8,5.81,5.81,0,0,1,2.76-.63,3.89,3.89,0,0,1,2.64,1.17,4.43,4.43,0,0,1,1.2-.21,4,4,0,0,1,1.14.09,7.5,7.5,0,0,1,2.16.63,6.93,6.93,0,0,1,1.86,1.17h5a2.33,2.33,0,0,1,1.77.73A2.12,2.12,0,0,1,421.8,102.55Zm-8,7.38a3,3,0,0,0,.69-2.9,4.56,4.56,0,0,0-1.83-2.47l-2.13,0q-1.23,0-2.31,0a5.34,5.34,0,0,1-2.67-.57,1.17,1.17,0,0,1-.69-1.47.7.7,0,0,0-.63-.06l-.81.3a11.28,11.28,0,0,0-2.64,2.71,9.37,9.37,0,0,0-1.74,4.22q-.54,2.9.36,4.22a3.53,3.53,0,0,0,3.18,1.45,14.1,14.1,0,0,0,3.15-.21,11.35,11.35,0,0,0,2.49-.75,12,12,0,0,0,3-1.87A19.7,19.7,0,0,0,413.82,109.92Z"/><path d="M448.08,105a5.58,5.58,0,0,1-1.14,3.48,10.16,10.16,0,0,1-3.54,2.94l-.93.45-1.26.57q-.69.3-1.35.63t-1.08.57q-.6.36-1.44.78t-1.8.84a14.81,14.81,0,0,1-1.92.69,6.47,6.47,0,0,1-1.74.27,3.15,3.15,0,0,1-2-.69,2.16,2.16,0,0,1-.78-1.53,3.33,3.33,0,0,1,1.14-2.34,3.14,3.14,0,0,1,1.41-.63,2.42,2.42,0,0,1,1.47.15,2.3,2.3,0,0,0,.72-.18l1-.42a10,10,0,0,0,1.14-.57l1-.63c.28-.16.62-.33,1-.51l1.17-.51,1-.42a3,3,0,0,0,.72-.36,4.38,4.38,0,0,0,1.53-1.26A2.25,2.25,0,0,0,443,105a2.21,2.21,0,0,0-.66-1.5,5.62,5.62,0,0,0-1.86-1.26q-.72-.36-2-.87t-2.79-1q-1.53-.51-3.18-1a22,22,0,0,0-3.15-.63q-.42,3.9-.78,8.22t-.6,8.64q-.24,4.32-.36,8.4t-.06,7.5a2.34,2.34,0,0,1,1.08,1.8,4,4,0,0,1-.18,1.44,2.88,2.88,0,0,1-.84,1.38,3.18,3.18,0,0,1-1.34.9,2.51,2.51,0,0,1-1.37.09,2.16,2.16,0,0,1-1.12-.69,2.62,2.62,0,0,1-.61-1.44,5.93,5.93,0,0,1-.15-1.17q0-.69,0-1.35-.06-4.56.09-9.15t.43-9q.27-4.41.61-8.46t.64-7.59a6.25,6.25,0,0,0-.85-.06h-.79a5.73,5.73,0,0,0-.78-.06,3.34,3.34,0,0,1-.78-.12,2.49,2.49,0,0,1-1.23-.84,1.91,1.91,0,0,1-.39-1.14,2.63,2.63,0,0,1,.66-1.74,2.38,2.38,0,0,1,2-.72A52.72,52.72,0,0,1,443,98.49a9.32,9.32,0,0,1,3.87,2.94A6.09,6.09,0,0,1,448.08,105Z"/><path d="M475.92,110.67a2.13,2.13,0,0,1,.15,1.68,1.93,1.93,0,0,1-1.41,1.26q-1.38.48-3.54,1.35t-4.74,1.65a35.36,35.36,0,0,1-5.46,1.17,18.37,18.37,0,0,1-5.64-.09,7.46,7.46,0,0,1-4.26-2q-2.76-2.64-1.86-7.5a19.08,19.08,0,0,1,1.17-4.26,27.37,27.37,0,0,1,1.77-3.6,26.57,26.57,0,0,1,2-2.88,23.75,23.75,0,0,1,1.83-2.1q.84-.84,1.68-1.53a7.12,7.12,0,0,1,1.5-1,10.55,10.55,0,0,1,1.59-.63,8.91,8.91,0,0,1,1.8-.36,8,8,0,0,1,1.83,0,4.26,4.26,0,0,1,1.68.6,3.82,3.82,0,0,1,1.38,1.38A5.74,5.74,0,0,1,468,95.7a8.12,8.12,0,0,1,.09,2.1,14.51,14.51,0,0,1-.33,2.13,9.46,9.46,0,0,1-2,3.69,16.86,16.86,0,0,1-3.45,3,21.4,21.4,0,0,1-4.26,2.19,16.18,16.18,0,0,1-4.38,1,3.17,3.17,0,0,0,.48,2.37,3,3,0,0,0,2,1.11,11.45,11.45,0,0,0,4.47.09,36.19,36.19,0,0,0,4.8-1.11q2.37-.72,4.5-1.56t3.51-1.26a1.87,1.87,0,0,1,1.59.09A2.38,2.38,0,0,1,475.92,110.67ZM463.5,98.91q.42-1.86-.24-2.46a1.69,1.69,0,0,0-1.2-.18,3.91,3.91,0,0,0-1.26.42,10.92,10.92,0,0,0-1.86,1.56,18.27,18.27,0,0,0-2.43,3.09,15.56,15.56,0,0,0-1.77,3.75,13.45,13.45,0,0,0,2.76-.84,15.74,15.74,0,0,0,2.7-1.44,10.74,10.74,0,0,0,2.13-1.83A5.3,5.3,0,0,0,463.5,98.91Z"/><path d="M513.78,110.79a2.16,2.16,0,0,1-1.44,2.22c-.24.08-.49.15-.75.21a1.84,1.84,0,0,1-.87,0q-1.2.48-2.88,1.11t-3.54,1.47a9.72,9.72,0,0,1-6.15.69,6.48,6.48,0,0,1-4.41-3.87,14.17,14.17,0,0,1-1.32-4.11q-.3-2-.48-3.33a1.13,1.13,0,0,0-1-1,2.27,2.27,0,0,0-1.23.12,7.65,7.65,0,0,0-1.47.72,12.89,12.89,0,0,0-1.29,1l-1.47,1.32-1.59,1.41a16.93,16.93,0,0,1-1.59,1.26,17.19,17.19,0,0,0-1.59,1.38q-.87.84-1.68,1.74a21.72,21.72,0,0,0-1.44,1.77,11,11,0,0,0-.93,1.47,2.45,2.45,0,0,1-1.61,1.38,3,3,0,0,1-1.79-.18,2,2,0,0,1-1.12-1,3.14,3.14,0,0,1-.27-1.32v-6.6q0-1.56,0-2.94t0-2.34a1.05,1.05,0,0,1-.9-1.08,8.72,8.72,0,0,1,.45-1.35,4.52,4.52,0,0,1,.75-1.29,1.51,1.51,0,0,1,.85-.57,3.44,3.44,0,0,1,1.22-.09,2.88,2.88,0,0,1,1.34.45,1.61,1.61,0,0,1,.73,1.17q.06.84.12,2t.06,2.52v2.52q0,1.26-.06,2.22a11.77,11.77,0,0,1,2-2.19l2.28-2q1.26-1.2,2.61-2.4a28.34,28.34,0,0,1,2.55-2,10.92,10.92,0,0,1,3-1.62,8.1,8.1,0,0,1,3.09-.54,4.37,4.37,0,0,1,3,1,4.69,4.69,0,0,1,1.56,3.12q.3,2.34.66,4.14a14.1,14.1,0,0,0,.9,3,2.44,2.44,0,0,0,2,1.59,5.3,5.3,0,0,0,2.64-.39l4.2-1.71a26.7,26.7,0,0,1,4.14-1.35,2.2,2.2,0,0,1,2.1.39A2.62,2.62,0,0,1,513.78,110.79Z"/><path d="M551.16,94.59a2.4,2.4,0,0,1-1,.84,1.86,1.86,0,0,1-1.47,0,8.21,8.21,0,0,1-1.68-.84,9.34,9.34,0,0,0-2.16.33,25.69,25.69,0,0,0-2.76.87q-1.44.54-2.85,1.23a17.79,17.79,0,0,0-2.43,1.41q-1.56,1-1.62,1.92t1.44,1.56q1.8,1,3.54,1.74A19.54,19.54,0,0,1,544,106a6.43,6.43,0,0,1,2,2.76,9.14,9.14,0,0,1,.6,3.18,10.66,10.66,0,0,1-.54,3.33,11.7,11.7,0,0,1-1.44,3,25.49,25.49,0,0,1-3.75,4.5,24.74,24.74,0,0,1-5.25,3.78,5.78,5.78,0,0,1-2.88.78,6.48,6.48,0,0,1-2.82-.66,2.75,2.75,0,0,1-1.53-1.68,2.79,2.79,0,0,1,.09-1.86,2.27,2.27,0,0,1,1.35-1.23,2.34,2.34,0,0,1,2.07.39,1.61,1.61,0,0,0,1.08.33,2.23,2.23,0,0,0,1.08-.33,23.63,23.63,0,0,0,3.87-3,16.83,16.83,0,0,0,2.91-3.45,8.2,8.2,0,0,0,1-2,6.07,6.07,0,0,0,.3-1.8,3.32,3.32,0,0,0-1-2.58,13.3,13.3,0,0,0-3.06-2q-1.92-.93-4.2-1.95a7.52,7.52,0,0,1-3.06-2.1,4.21,4.21,0,0,1-1-2.7,5,5,0,0,1,1.08-2.88A11.67,11.67,0,0,1,534,95a29.94,29.94,0,0,1,2.7-1.62,31.14,31.14,0,0,1,3.3-1.53,29.8,29.8,0,0,1,3.63-1.17,17.36,17.36,0,0,1,3.69-.54,5,5,0,0,1,2.16.33,3.68,3.68,0,0,1,1.5,1.05,2.27,2.27,0,0,1,.66,1.56A2.49,2.49,0,0,1,551.16,94.59Z"/><path d="M576.66,102.55a2.19,2.19,0,0,1-.24,1,1.59,1.59,0,0,1-.72.73,9.77,9.77,0,0,1-2.7.3,5.82,5.82,0,0,1,1,3.24,7.3,7.3,0,0,1-.36,2.34,7.2,7.2,0,0,1-1.47,2.52,20.41,20.41,0,0,1-7.2,5.64,13.49,13.49,0,0,1-3.54,1.08,30.38,30.38,0,0,1-4,.36q-5.46.12-7.5-3.37-1.62-2.83-.6-7.64a15.84,15.84,0,0,1,1.11-3.46,14.87,14.87,0,0,1,1.83-3,15.52,15.52,0,0,1,2.4-2.47,14.84,14.84,0,0,1,2.76-1.8,5.82,5.82,0,0,1,2.76-.63,3.89,3.89,0,0,1,2.64,1.17,4.44,4.44,0,0,1,1.2-.21,4,4,0,0,1,1.14.09,7.5,7.5,0,0,1,2.16.63,6.94,6.94,0,0,1,1.86,1.17h5a2.33,2.33,0,0,1,1.77.73A2.12,2.12,0,0,1,576.66,102.55Zm-8,7.38a3,3,0,0,0,.69-2.9,4.56,4.56,0,0,0-1.83-2.47l-2.13,0q-1.23,0-2.31,0a5.34,5.34,0,0,1-2.67-.57,1.17,1.17,0,0,1-.69-1.47.7.7,0,0,0-.63-.06l-.81.3a11.29,11.29,0,0,0-2.64,2.71,9.37,9.37,0,0,0-1.74,4.22q-.54,2.9.36,4.22a3.53,3.53,0,0,0,3.18,1.45,14.1,14.1,0,0,0,3.15-.21,11.33,11.33,0,0,0,2.49-.75,12,12,0,0,0,3-1.87A19.64,19.64,0,0,0,568.68,109.92Z"/><path d="M615.54,110.79a2.52,2.52,0,0,1,.21,1.59,2.19,2.19,0,0,1-1.11,1.47,18.4,18.4,0,0,1-3.42,1.56,28.51,28.51,0,0,1-4.32,1.14,9.77,9.77,0,0,1-4.14-.3,5.38,5.38,0,0,1-3.18-2.28,8.06,8.06,0,0,1-.75-1.77,12.19,12.19,0,0,1-.39-2.31,32.08,32.08,0,0,1-2.94,3.27,21.93,21.93,0,0,1-3.3,2.73,14.37,14.37,0,0,1-4.8,2.13,9.84,9.84,0,0,1-4.38,0,6.54,6.54,0,0,1-3-1.56,7.39,7.39,0,0,1-1.89-2.94,13.4,13.4,0,0,1-.63-3.66,30.94,30.94,0,0,1,.09-4.08,28.87,28.87,0,0,1,.57-3.78,25.18,25.18,0,0,1,.75-2.76A2.56,2.56,0,0,1,580,97.89a2.94,2.94,0,0,1,1.5-.42,2.19,2.19,0,0,1,1.59.69,1.7,1.7,0,0,1,.27,1.89,24.36,24.36,0,0,0-.72,2.94q-.3,1.62-.48,3.21a19.53,19.53,0,0,0-.12,3,9.46,9.46,0,0,0,.36,2.4,2.74,2.74,0,0,0,1.92,2,5,5,0,0,0,2.43,0,7.75,7.75,0,0,0,2.85-1.32,25.27,25.27,0,0,0,5.82-5.64,23.79,23.79,0,0,0,3.3-6,1.89,1.89,0,0,1,1.14-1.11,3.42,3.42,0,0,1,1.62-.15,2.78,2.78,0,0,1,1.38.87,1.59,1.59,0,0,1,.3,1.53,22.48,22.48,0,0,0-.72,4.8,10,10,0,0,0,.48,3.66,2.58,2.58,0,0,0,1.38,1.56,4.22,4.22,0,0,0,2,.24,13.32,13.32,0,0,0,3.39-.81A22.93,22.93,0,0,0,612.6,110a2.05,2.05,0,0,1,1.8-.3A2,2,0,0,1,615.54,110.79Z"/><path d="M635.88,103.11a2.12,2.12,0,0,1-1.11.9,2,2,0,0,1-1.59-.24,5,5,0,0,0-1.17-.39,2.36,2.36,0,0,0-1,0,12.49,12.49,0,0,0-2.25.54q-1.29.42-2.73,1a28.8,28.8,0,0,0-2.85,1.38q-1.41.78-2.67,1.56a13.21,13.21,0,0,0-1.74,1.32,5.09,5.09,0,0,0-1,1.2,6.13,6.13,0,0,0-.66,1.59q-.18.75-.3,1.59a2.34,2.34,0,0,1-.75,1.65,2.27,2.27,0,0,1-1.47.51,2.17,2.17,0,0,1-1.5-.6,2.48,2.48,0,0,1-.72-1.8q-.06-1.14-.06-2.64v-3q0-1.56.09-3t.21-2.49a.66.66,0,0,1-.51-.48.87.87,0,0,1,.15-.72,7.31,7.31,0,0,0,.6-1.08q.24-.54.48-1.14a1.54,1.54,0,0,1,1.05-1,3.28,3.28,0,0,1,1.59,0,3,3,0,0,1,1.17.78,1.45,1.45,0,0,1,.33,1.38c-.08.36-.16.78-.24,1.26s-.15,1-.21,1.5-.1,1-.12,1.53,0,.93,0,1.29a5.77,5.77,0,0,1,.81-.78l.87-.66a29.4,29.4,0,0,1,3.06-1.8q1.74-.9,3.54-1.65a29.26,29.26,0,0,1,3.57-1.23,14.67,14.67,0,0,1,3.15-.54,5.35,5.35,0,0,1,2.16.3,7.53,7.53,0,0,1,1.5.72,2,2,0,0,1,.84,1.62A2.86,2.86,0,0,1,635.88,103.11Z"/><path d="M666.18,109a2.69,2.69,0,0,1,.39,1.71,2.13,2.13,0,0,1-1.23,1.59q-1.08.6-3.09,1.5a40.63,40.63,0,0,1-4.65,1.71,53.69,53.69,0,0,1-5.85,1.41,40.27,40.27,0,0,1-6.69.66,16.51,16.51,0,0,1-5.55-.72A7.28,7.28,0,0,1,636,114.6a5.33,5.33,0,0,1-1.14-3.51,9.67,9.67,0,0,1,1.47-4.56,20.11,20.11,0,0,1,2.16-3,22,22,0,0,1,2.85-2.76,26.8,26.8,0,0,1,3.39-2.34,23.28,23.28,0,0,1,3.78-1.77,6.85,6.85,0,0,1,1.74-.3,8,8,0,0,1,1.74.06,3.2,3.2,0,0,1,2,.87,2.5,2.5,0,0,1,.69,1.53,2.59,2.59,0,0,1-.57,1.59,2.45,2.45,0,0,1-1.59.93,4.45,4.45,0,0,1-1.56.09,7.25,7.25,0,0,1-1.68-.39,11,11,0,0,0-2.37,1,14.52,14.52,0,0,0-2.49,1.77,23.75,23.75,0,0,0-2.25,2.25,11.45,11.45,0,0,0-1.65,2.4,4,4,0,0,0-.51,1.77,2.22,2.22,0,0,0,.51,1.53,3.62,3.62,0,0,0,1.59,1.05,8,8,0,0,0,2.73.39,32.34,32.34,0,0,0,5.91-.54,46.41,46.41,0,0,0,5.4-1.32,36.62,36.62,0,0,0,4.32-1.62q1.83-.84,2.67-1.32a2.32,2.32,0,0,1,1.71-.27A2.24,2.24,0,0,1,666.18,109Z"/><path d="M689.1,110.67a2.13,2.13,0,0,1,.15,1.68,1.93,1.93,0,0,1-1.41,1.26q-1.38.48-3.54,1.35t-4.74,1.65a35.36,35.36,0,0,1-5.46,1.17,18.37,18.37,0,0,1-5.64-.09,7.46,7.46,0,0,1-4.26-2q-2.76-2.64-1.86-7.5a19.08,19.08,0,0,1,1.17-4.26,27.37,27.37,0,0,1,1.77-3.6,26.57,26.57,0,0,1,2-2.88,23.75,23.75,0,0,1,1.83-2.1q.84-.84,1.68-1.53a7.12,7.12,0,0,1,1.5-1,10.55,10.55,0,0,1,1.59-.63,8.91,8.91,0,0,1,1.8-.36,8,8,0,0,1,1.83,0,4.26,4.26,0,0,1,1.68.6,3.82,3.82,0,0,1,1.38,1.38,5.74,5.74,0,0,1,.66,1.83,8.12,8.12,0,0,1,.09,2.1,14.51,14.51,0,0,1-.33,2.13,9.46,9.46,0,0,1-2,3.69,16.86,16.86,0,0,1-3.45,3,21.4,21.4,0,0,1-4.26,2.19,16.18,16.18,0,0,1-4.38,1,3.17,3.17,0,0,0,.48,2.37,3,3,0,0,0,2,1.11,11.45,11.45,0,0,0,4.47.09,36.19,36.19,0,0,0,4.8-1.11q2.37-.72,4.5-1.56t3.51-1.26a1.87,1.87,0,0,1,1.59.09A2.38,2.38,0,0,1,689.1,110.67ZM676.68,98.91q.42-1.86-.24-2.46a1.69,1.69,0,0,0-1.2-.18,3.91,3.91,0,0,0-1.26.42,10.92,10.92,0,0,0-1.86,1.56,18.27,18.27,0,0,0-2.43,3.09,15.56,15.56,0,0,0-1.77,3.75,13.45,13.45,0,0,0,2.76-.84,15.74,15.74,0,0,0,2.7-1.44,10.74,10.74,0,0,0,2.13-1.83A5.3,5.3,0,0,0,676.68,98.91Z"/><path d="M696.18,117.33A3.56,3.56,0,0,1,694,118a2.71,2.71,0,0,1-2-1,3.35,3.35,0,0,1-.84-2.28,2.9,2.9,0,0,1,1.2-2.34,3,3,0,0,1,2-.6,3.28,3.28,0,0,1,1.83.6,2.39,2.39,0,0,1,.87,1.11,3.83,3.83,0,0,1,.27,1.41,3.6,3.6,0,0,1-.27,1.38A2.41,2.41,0,0,1,696.18,117.33Z"/></g></g></g></svg>